<svg width="668" height="232" viewBox="0 0 668 232" fill="none" xmlns="http://www.w3.org/2000/svg">
<path d="M99.31 106.42H0V4.0498H99.31V20.6698H50.91C31.97 20.6698 16.62 36.0198 16.62 54.9598V55.5198C16.62 74.4598 31.97 89.8098 50.91 89.8098H99.31V106.43V106.42Z" fill="black"/>
<path d="M145.23 59.1298L195.54 59.1598C205.93 59.1598 214.36 50.7398 214.36 40.3498V39.4798C214.36 29.0898 205.94 20.6698 195.55 20.6698H145.22V59.1298H145.23ZM145.23 106.42H128.61V4.0498H230.98V75.7998L145.23 75.7498V106.42Z" fill="black"/>
<path d="M16.62 144.84V158.9H36.16C39.87 158.88 42.88 155.87 42.88 152.16V151.56C42.88 147.85 39.87 144.84 36.16 144.84H16.62ZM16.62 213.98H66.77C77.25 213.98 85.75 205.48 85.75 195V194.47C85.75 183.98 77.24 175.48 66.75 175.49H59.49V175.58H42.87V175.5L16.61 175.52V213.98H16.62ZM102.37 230.6H0V128.23H59.49V158.88L102.37 158.85V230.6Z" fill="black"/>
<path d="M187.5 128.23H127.96V230.6H144.58V157.56C144.58 150.54 150.27 144.84 157.3 144.84H158.17C165.19 144.84 170.89 150.53 170.89 157.56V230.6H187.51V157.56C187.51 150.54 193.2 144.84 200.23 144.84H201.1C208.12 144.84 213.82 150.53 213.82 157.56V230.6H230.44V128.23H187.52H187.5Z" fill="black"/>
</svg>
