<svg width="668" height="232" viewBox="0 0 668 232" fill="none" xmlns="http://www.w3.org/2000/svg">
<path d="M473.18 50.2298L460.46 15.2598H464.91L474.83 42.2798L483.73 15.2598H491.61L479.22 50.2298H473.18Z" fill="black"/>
<path d="M429.31 145.99H414.69V136.01H440.88L423.21 162.33H439.35V170.98H412.01L429.31 145.99Z" fill="black"/>
<path d="M291.23 184.94L278.96 223.78L266.88 184.94H256.39V231.35H261.16V193.78L275.4 231.35H283.03L296.44 194.03V231.35H300.9V184.94H291.23Z" fill="black"/>
<path d="M99.31 106.42H0V4.0498H99.31V20.6698H50.91C31.97 20.6698 16.62 36.0198 16.62 54.9598V55.5198C16.62 74.4598 31.97 89.8098 50.91 89.8098H99.31V106.43V106.42Z" fill="black"/>
<path d="M145.23 59.1298L195.54 59.1598C205.93 59.1598 214.36 50.7398 214.36 40.3498V39.4798C214.36 29.0898 205.94 20.6698 195.55 20.6698H145.22V59.1298H145.23ZM145.23 106.42H128.61V4.0498H230.98V75.7998L145.23 75.7498V106.42Z" fill="black"/>
<path d="M16.62 144.84V158.9H36.16C39.87 158.88 42.88 155.87 42.88 152.16V151.56C42.88 147.85 39.87 144.84 36.16 144.84H16.62ZM16.62 213.98H66.77C77.25 213.98 85.75 205.48 85.75 195V194.47C85.75 183.98 77.24 175.48 66.75 175.49H59.49V175.58H42.87V175.5L16.61 175.52V213.98H16.62ZM102.37 230.6H0V128.23H59.49V158.88L102.37 158.85V230.6Z" fill="black"/>
<path d="M187.5 128.23H127.96V230.6H144.58V157.56C144.58 150.54 150.27 144.84 157.3 144.84H158.17C165.19 144.84 170.89 150.53 170.89 157.56V230.6H187.51V157.56C187.51 150.54 193.2 144.84 200.23 144.84H201.1C208.12 144.84 213.82 150.53 213.82 157.56V230.6H230.44V128.23H187.52H187.5Z" fill="black"/>
<path d="M292.95 36.88C290.85 45.85 284.49 50.87 273.81 50.87C263.13 50.87 255.44 43.37 255.44 27.73C255.44 10.12 263.39 3.11997 274.45 3.18997C283.48 3.24997 289.96 6.23997 292.44 16.03L288.12 19.65C285.9 16.85 281.38 15.07 274.45 15.07C264.85 15.07 259.45 20.22 259.38 28.48C259.32 36.81 264.34 42.02 274.7 42.02C281.95 42.02 287.54 38.97 289.2 34.01L292.95 36.87V36.88Z" fill="black"/>
<path d="M324.8 33.3801C324.74 28.2901 321.11 24.6701 313.93 24.6701C306.75 24.6701 303.12 28.2901 303.06 33.3801C303 40.9501 308.02 43.4301 313.93 43.4301C319.84 43.4301 324.87 40.9501 324.8 33.3801ZM299.3 33.3801C299.3 19.8401 305.28 14.6201 313.92 14.6201C322.56 14.6201 328.54 19.8301 328.54 33.3801C328.54 45.5901 322.44 50.8701 313.92 50.8701C305.4 50.8701 299.3 45.5901 299.3 33.3801Z" fill="black"/>
<path d="M338.4 31.7901V50.2301H334.27V15.2601H338.4V20.9801C340.24 16.8501 344.12 14.6201 348.89 14.6201C357.35 14.6201 360.97 18.5001 360.97 30.9601V50.2201H356.97V34.9001C356.97 28.4101 354.55 25.4901 348.58 25.4901C343.75 25.4901 340.12 27.3301 338.41 31.7801" fill="black"/>
<path d="M392.95 20.2204L391.74 26.9004C390.09 24.8704 387.16 23.0804 381.82 23.0804C377.05 23.0804 374.32 24.9204 374.32 27.2804C374.32 28.9304 376.16 30.0804 381.76 30.6504C390.85 31.5404 394.16 34.7204 394.16 41.3904C394.16 48.0604 389.71 50.8604 381.51 50.8604C374.01 50.8604 370.38 47.7404 368.54 44.3104L370.07 37.9504C372.04 40.4904 375.28 42.7204 381.01 42.7204C386.74 42.7204 389.08 40.8104 389.08 38.6504C389.08 36.9304 386.79 35.7904 381.39 35.2104C373.13 34.3804 369.56 31.9004 369.56 24.4004C369.56 17.7204 373.76 14.6104 381.32 14.6104C386.98 14.6104 390.92 16.6404 392.96 20.2004" fill="black"/>
<path d="M404.9 31.3401H425.5C425.5 27.4601 421.5 23.6501 415.01 23.6501C410.24 23.6501 405.79 26.5101 404.9 31.3401ZM415.45 50.8601C405.91 50.8601 401.02 43.5501 401.02 33.2501C401.02 19.7101 407.7 14.6201 415.33 14.6201C423.98 14.6201 429.64 20.9801 429.64 35.4701H404.91C405.74 41.0601 409.49 43.7301 415.34 43.8001C420.93 43.8601 423.6 42.5301 425.45 39.9801L428.44 42.2101C426.34 47.0401 421.63 50.8601 415.47 50.8601" fill="black"/>
<path d="M443.99 50.2299H439.79V26.2599H435.97V15.2599H441.38L443.54 20.2199C445 16.4099 448.18 14.6299 450.79 14.6299C453.84 14.6299 455.3 15.5799 456.96 16.9799L454.55 27.5299C453.79 25.8799 452.26 25.1799 449.4 25.1799C446.28 25.1799 443.99 27.6599 443.99 32.1099V50.2299Z" fill="black"/>
<path d="M518.76 41.3899V36.8799C516.15 34.9099 513.29 33.9599 509.73 33.9599C503.82 33.9599 500.83 36.0599 500.83 39.2399C500.83 41.8499 504.45 44.1999 509.29 44.1999C513.23 44.1999 516.73 43.3099 518.76 41.3999M519.4 48.0099C517.17 49.9199 514.19 50.8699 509.23 50.8699C500.2 50.8699 495.88 46.5499 495.88 40.3799C495.88 33.3899 500.71 29.4399 508.6 29.4399C511.59 29.4399 516.04 30.0099 518.71 31.8599C518.39 25.8799 515.59 23.3999 509.62 23.3999C504.21 23.3999 501.04 25.1199 499.32 27.1499L499.06 18.9499C501.48 16.0899 505.48 14.6299 510.25 14.6299C518.9 14.6299 522.78 18.3799 522.78 30.1399V50.2299H520.24L519.41 47.9999L519.4 48.0099Z" fill="black"/>
<path d="M542.79 50.8599C537.83 50.8599 534.21 48.1899 534.21 40.4999V25.8099H529.19V15.8899H534.21V7.62988H538.34V15.8999H547.88V25.8199H538.34V36.1199C538.34 40.6999 540.5 42.2899 543.62 42.3499C546.29 42.4099 548.45 41.5199 549.47 40.3799L551.19 46.7999C550.04 49.3399 546.42 50.8699 542.8 50.8699" fill="black"/>
<path d="M581.63 33.3801C581.57 28.2901 577.94 24.6701 570.76 24.6701C563.58 24.6701 559.95 28.2901 559.89 33.3801C559.83 40.9501 564.85 43.4301 570.76 43.4301C576.67 43.4301 581.7 40.9501 581.63 33.3801ZM556.13 33.3801C556.13 19.8401 562.11 14.6201 570.75 14.6201C579.39 14.6201 585.37 19.8301 585.37 33.3801C585.37 45.5901 579.27 50.8701 570.75 50.8701C562.23 50.8701 556.13 45.5901 556.13 33.3801Z" fill="black"/>
<path d="M598.03 10.49C594.34 10.49 592.31 8.77 592.31 5.15C592.31 1.53 594.22 0 598.03 0C601.46 0 603.5 1.46 603.5 5.15C603.5 8.84 601.34 10.49 598.03 10.49ZM599.05 26.96H591.1V16.53H603.18V50.23H599.05V26.96Z" fill="black"/>
<path d="M620.73 50.2299H616.53V26.2599H612.71V15.2599H618.12L620.28 20.2199C621.74 16.4099 624.92 14.6299 627.53 14.6299C630.58 14.6299 632.04 15.5799 633.7 16.9799L631.29 27.5299C630.53 25.8799 629 25.1799 626.14 25.1799C623.02 25.1799 620.73 27.6599 620.73 32.1099V50.2299Z" fill="black"/>
<path d="M642.66 31.3401H663.26C663.26 27.4601 659.25 23.6501 652.77 23.6501C648 23.6501 643.55 26.5101 642.66 31.3401ZM653.21 50.8601C643.67 50.8601 638.78 43.5501 638.78 33.2501C638.78 19.7101 645.46 14.6201 653.09 14.6201C661.74 14.6201 667.39 20.9801 667.39 35.4701H642.66C643.49 41.0601 647.24 43.7301 653.09 43.8001C658.68 43.8601 661.35 42.5301 663.2 39.9801L666.19 42.2101C664.09 47.0401 659.39 50.8601 653.22 50.8601" fill="black"/>
<path d="M284.94 81.9902C284.88 77.6702 281.13 74.6202 273.81 74.6202H261.86V89.1202H273.81C281 89.1202 285 85.9402 284.94 82.0002M261.86 98.5302V110.61H257.34V64.2002H271.33C282.58 64.2002 288.81 69.1002 288.81 82.0002C288.81 93.4402 282.83 98.5302 271.26 98.5302H261.85H261.86Z" fill="black"/>
<path d="M304.32 70.8601C300.63 70.8601 298.6 69.1401 298.6 65.5201C298.6 61.9001 300.51 60.3701 304.32 60.3701C307.76 60.3701 309.79 61.8301 309.79 65.5201C309.79 69.2101 307.63 70.8601 304.32 70.8601ZM305.34 87.3301H297.39V76.9001H309.47V110.6H305.34V87.3301Z" fill="black"/>
<path d="M321.61 91.72H342.21C342.21 87.84 338.21 84.03 331.72 84.03C326.95 84.03 322.5 86.89 321.61 91.72ZM332.16 111.24C322.62 111.24 317.73 103.93 317.73 93.63C317.73 80.09 324.41 75 332.04 75C340.69 75 346.35 81.36 346.35 95.85H321.62C322.45 101.44 326.2 104.11 332.05 104.18C337.64 104.24 340.31 102.91 342.16 100.36L345.15 102.59C343.05 107.42 338.35 111.24 332.18 111.24" fill="black"/>
<path d="M360.71 110.6H356.51V86.63H352.69V75.63H358.1L360.26 80.59C361.72 76.78 364.9 75 367.51 75C370.56 75 372.02 75.95 373.68 77.35L371.27 87.9C370.51 86.25 368.98 85.55 366.12 85.55C363 85.55 360.71 88.03 360.71 92.48V110.6Z" fill="black"/>
<path d="M388.05 110.6H383.85V86.63H380.03V75.63H385.44L387.6 80.59C389.06 76.78 392.24 75 394.85 75C397.9 75 399.36 75.95 401.02 77.35L398.61 87.9C397.85 86.25 396.32 85.55 393.46 85.55C390.34 85.55 388.05 88.03 388.05 92.48V110.6Z" fill="black"/>
<path d="M409.98 91.72H430.58C430.58 87.84 426.58 84.03 420.09 84.03C415.32 84.03 410.87 86.89 409.98 91.72ZM420.53 111.24C410.99 111.24 406.1 103.93 406.1 93.63C406.1 80.09 412.78 75 420.41 75C429.06 75 434.72 81.36 434.72 95.85H409.99C410.82 101.44 414.57 104.11 420.42 104.18C426.01 104.24 428.68 102.91 430.53 100.36L433.52 102.59C431.42 107.42 426.72 111.24 420.55 111.24" fill="black"/>
<path d="M275.91 160.8C281.57 160.8 284.05 158.13 284.05 155.14C284.05 152.15 282.08 150.05 275.72 150.05H260.59V160.79H275.91V160.8ZM275.91 145.48C281.89 145.48 283.22 143.07 283.22 140.01C283.22 137.4 281.37 134.73 274.64 134.73H260.59V145.47H275.91V145.48ZM256.01 124.56H272.54C282.84 124.56 287.8 129.77 287.8 136.7C287.8 143.63 286.15 146.3 282.71 147.7C287.22 149.29 288.81 152.34 288.81 158.38C288.81 165.56 283.6 170.97 273.74 170.97H256V124.56H256.01Z" fill="black"/>
<path d="M319.77 162.14V157.63C317.16 155.66 314.3 154.71 310.74 154.71C304.83 154.71 301.84 156.81 301.84 159.99C301.84 162.6 305.46 164.95 310.3 164.95C314.24 164.95 317.74 164.06 319.77 162.15M320.41 168.76C318.18 170.67 315.2 171.62 310.24 171.62C301.21 171.62 296.89 167.3 296.89 161.13C296.89 154.14 301.72 150.19 309.61 150.19C312.6 150.19 317.05 150.76 319.72 152.61C319.4 146.63 316.6 144.15 310.63 144.15C305.22 144.15 302.05 145.87 300.33 147.9L300.08 139.7C302.49 136.84 306.5 135.38 311.27 135.38C319.92 135.38 323.8 139.13 323.8 150.89V170.98H321.26L320.43 168.75L320.41 168.76Z" fill="black"/>
<path d="M339.73 170.98H335.53V147.01H331.71V136.01H337.12L339.28 140.97C340.74 137.16 343.92 135.38 346.53 135.38C349.58 135.38 351.04 136.33 352.7 137.73L350.29 148.28C349.53 146.63 348 145.93 345.14 145.93C342.02 145.93 339.73 148.41 339.73 152.86V170.98Z" fill="black"/>
<path d="M382.58 154.06C382.58 149.1 379.34 145.67 372.79 145.67C365.35 145.67 362.62 149.17 362.55 154.06V160.35C364.65 163.21 367.45 164.1 372.53 164.1C379.27 164.1 382.64 160.22 382.58 154.05M362.36 165.49L361.92 170.96H358.42V121.37H362.55V141.65C364.71 136.95 369.16 135.42 373.23 135.36C381.05 135.3 386.33 140.38 386.33 154.05C386.33 165.18 381.43 171.6 372.92 171.6C368.28 171.6 364.4 168.99 362.37 165.5" fill="black"/>
<path d="M399.05 131.24C395.36 131.24 393.33 129.52 393.33 125.9C393.33 122.28 395.24 120.75 399.05 120.75C402.48 120.75 404.52 122.21 404.52 125.9C404.52 129.59 402.36 131.24 399.05 131.24ZM400.07 147.71H392.12V137.28H404.2V170.98H400.07V147.71Z" fill="black"/>
<path d="M450.03 152.09H470.63C470.63 148.21 466.62 144.4 460.14 144.4C455.37 144.4 450.92 147.26 450.03 152.09ZM460.58 171.61C451.04 171.61 446.15 164.3 446.15 154C446.15 140.46 452.83 135.37 460.46 135.37C469.11 135.37 474.76 141.73 474.76 156.22H450.03C450.86 161.81 454.61 164.48 460.46 164.55C466.05 164.61 468.72 163.28 470.57 160.73L473.56 162.96C471.46 167.79 466.76 171.61 460.59 171.61" fill="black"/>
<path d="M493.2 171.61C488.24 171.61 484.62 168.94 484.62 161.25V146.56H479.6V136.64H484.62V128.37H488.75V136.64H498.29V146.56H488.75V156.86C488.75 161.44 490.91 163.03 494.03 163.09C496.7 163.15 498.86 162.26 499.88 161.12L501.6 167.54C500.45 170.08 496.83 171.61 493.21 171.61" fill="black"/>
<path d="M332.49 222.51V218C329.88 216.03 327.02 215.08 323.46 215.08C317.55 215.08 314.56 217.18 314.56 220.36C314.56 222.97 318.18 225.32 323.02 225.32C326.96 225.32 330.46 224.43 332.49 222.52M333.13 229.13C330.9 231.04 327.92 231.99 322.96 231.99C313.93 231.99 309.61 227.67 309.61 221.5C309.61 214.51 314.44 210.56 322.33 210.56C325.32 210.56 329.77 211.13 332.44 212.98C332.12 207 329.32 204.52 323.35 204.52C317.94 204.52 314.77 206.24 313.05 208.27L312.79 200.07C315.21 197.21 319.21 195.75 323.98 195.75C332.63 195.75 336.51 199.5 336.51 211.26V231.35H333.97L333.14 229.12L333.13 229.13Z" fill="black"/>
<path d="M352.45 231.35H348.25V207.38H344.43V196.38H349.84L352 201.34C353.46 197.53 356.64 195.75 359.25 195.75C362.3 195.75 363.76 196.7 365.42 198.1L363 208.65C362.24 207 360.71 206.3 357.85 206.3C354.73 206.3 352.44 208.78 352.44 213.23V231.35H352.45Z" fill="black"/>
<path d="M396.13 201.34L394.92 208.02C393.27 205.99 390.34 204.2 385 204.2C380.23 204.2 377.5 206.04 377.5 208.4C377.5 210.05 379.34 211.2 384.94 211.77C394.03 212.66 397.34 215.84 397.34 222.51C397.34 229.18 392.89 231.98 384.69 231.98C377.19 231.98 373.56 228.86 371.72 225.43L373.25 219.07C375.22 221.61 378.46 223.84 384.19 223.84C389.92 223.84 392.26 221.93 392.26 219.77C392.26 218.05 389.97 216.91 384.57 216.33C376.31 215.5 372.74 213.03 372.74 205.52C372.74 198.84 376.94 195.73 384.5 195.73C390.16 195.73 394.1 197.76 396.14 201.32" fill="black"/>
<path d="M408.07 212.47H428.67C428.67 208.59 424.67 204.78 418.18 204.78C413.41 204.78 408.96 207.64 408.07 212.47ZM418.62 231.99C409.08 231.99 404.19 224.68 404.19 214.38C404.19 200.84 410.87 195.75 418.5 195.75C427.15 195.75 432.81 202.11 432.81 216.6H408.08C408.91 222.19 412.66 224.86 418.51 224.93C424.1 224.99 426.77 223.66 428.62 221.11L431.61 223.34C429.51 228.17 424.81 231.99 418.64 231.99" fill="black"/>
<path d="M445.46 191.61C441.77 191.61 439.74 189.89 439.74 186.27C439.74 182.65 441.65 181.12 445.46 181.12C448.89 181.12 450.93 182.58 450.93 186.27C450.93 189.96 448.77 191.61 445.46 191.61ZM446.48 208.08H438.53V197.65H450.61V231.35H446.48V208.08Z" fill="black"/>
<path d="M464.27 221.88V191.3H458.67V181.76H468.59V217.05C468.59 220.86 469.99 223.09 473.68 223.09C476.22 223.09 478.13 222.39 479.34 221.12L481.12 228.05C479.72 230.09 477.12 231.99 472.54 231.99C466.95 231.99 464.28 229 464.28 221.88" fill="black"/>
<path d="M488.43 221.88V191.3H482.83V181.76H492.75V217.05C492.75 220.86 494.15 223.09 497.84 223.09C500.38 223.09 502.29 222.39 503.5 221.12L505.28 228.05C503.88 230.09 501.28 231.99 496.7 231.99C491.11 231.99 488.44 229 488.44 221.88" fill="black"/>
<path d="M511.06 212.47H531.66C531.66 208.59 527.65 204.78 521.17 204.78C516.4 204.78 511.95 207.64 511.06 212.47ZM521.61 231.99C512.07 231.99 507.18 224.68 507.18 214.38C507.18 200.84 513.86 195.75 521.49 195.75C530.14 195.75 535.79 202.11 535.79 216.6H511.06C511.89 222.19 515.64 224.86 521.49 224.93C527.08 224.99 529.75 223.66 531.6 221.11L534.59 223.34C532.49 228.17 527.79 231.99 521.62 231.99" fill="black"/>
</svg>
