<svg width="72" height="70" viewBox="0 0 72 70" fill="none" xmlns="http://www.w3.org/2000/svg">
<path d="M30.6202 31.5637H0V0H30.6202V5.12444H15.6971C9.8573 5.12444 5.12444 9.8573 5.12444 15.6971V15.8697C5.12444 21.7095 9.8573 26.4424 15.6971 26.4424H30.6202V31.5668V31.5637Z" fill="black"/>
<path d="M44.7797 16.9828L60.2918 16.9921C63.4953 16.9921 66.0946 14.3959 66.0946 11.1924V10.9241C66.0946 7.72058 63.4984 5.12444 60.2949 5.12444H44.7766V16.9828H44.7797ZM44.7797 31.5637H39.6553V0H71.219V22.1227L44.7797 22.1072V31.5637Z" fill="black"/>
<path d="M5.12444 43.4104V47.7455H11.1492C12.2931 47.7394 13.2212 46.8113 13.2212 45.6674V45.4824C13.2212 44.3385 12.2931 43.4104 11.1492 43.4104H5.12444ZM5.12444 64.7283H20.5872C23.8185 64.7283 26.4393 62.1075 26.4393 58.8762V58.7128C26.4393 55.4785 23.8154 52.8576 20.581 52.8607H18.3425V52.8885H13.2181V52.8638L5.12136 52.87V64.7283H5.12444ZM31.5637 69.8528H0V38.2891H18.3425V47.7394L31.5637 47.7301V69.8528Z" fill="black"/>
<path d="M57.8121 38.2891H39.4541V69.8528H44.5785V47.3324C44.5785 45.1679 46.3329 43.4104 48.5005 43.4104H48.7687C50.9332 43.4104 52.6907 45.1648 52.6907 47.3324V69.8528H57.8151V47.3324C57.8151 45.1679 59.5695 43.4104 61.7371 43.4104H62.0053C64.1698 43.4104 65.9273 45.1648 65.9273 47.3324V69.8528H71.0517V38.2891H57.8182H57.8121Z" fill="black"/>
</svg>
