<svg width="34" height="33" viewBox="0 0 34 33" fill="none" xmlns="http://www.w3.org/2000/svg">
<path d="M0.00599912 32.109L0.00600052 -1.44674e-06L33.1035 0L33.1035 32.109L27.7283 32.109L27.7283 16.4551C27.7283 10.3305 22.7666 5.36874 16.642 5.36874L16.4611 5.36874C10.3365 5.36874 5.37473 10.3305 5.37473 16.4551L5.37473 32.109L-0.000462982 32.109L0.00599912 32.109Z" fill="black"/>
<path d="M33.0975 0.183922L33.0975 32.293L0 32.293L3.82897e-07 0.183922L5.3752 0.183922L5.3752 15.8379C5.3752 21.9625 10.3369 26.9242 16.4615 26.9242L16.6424 26.9242C22.7671 26.9242 27.7288 21.9625 27.7288 15.8379L27.7288 0.183922L33.104 0.183922L33.0975 0.183922Z" fill="black"/>
</svg>
