<svg width="29" height="24" viewBox="0 0 29 24" fill="none" xmlns="http://www.w3.org/2000/svg">
<path d="M20.6181 23.378L0.849608 23.378L0.849609 3.00098L20.6181 3.00098L20.6181 6.3103L10.9804 6.3103C8.84282 6.3103 4.15496 6.3103 4.15496 6.3103C4.15496 6.3103 4.15496 11.5027 4.15496 13.1358L4.15496 13.2472C4.15496 17.0179 7.20972 20.0726 10.9804 20.0726L20.6181 20.0726L20.6181 23.382L20.6181 23.378Z" fill="black"/>
<path d="M8.76524 3.00677L28.5337 3.00677L28.5337 23.3838L8.76524 23.3838L8.76524 20.0745L18.4029 20.0745C22.1736 20.0745 25.2283 17.0197 25.2283 13.249L25.2283 13.1376C25.2283 11.68 25.2283 6.31212 25.2283 6.31212C25.2283 6.31212 20.716 6.31212 18.4029 6.31212L8.76524 6.31212L8.76524 3.00279L8.76524 3.00677Z" fill="black"/>
<rect x="7.84961" y="9.62549" width="9.62549" height="3.41895" transform="rotate(-90 7.84961 9.62549)" fill="black"/>
<rect x="17.8496" y="9.62744" width="9.62549" height="3.41895" transform="rotate(-90 17.8496 9.62744)" fill="black"/>
</svg>
