<svg width="59" height="16" viewBox="0 0 59 16" fill="none" xmlns="http://www.w3.org/2000/svg">
<path d="M49.6583 2.49463C41.249 -2.72551 30.6545 3.57823 26.4869 6.53223C26.1953 6.73953 25.9036 6.94683 25.6119 7.15884C22.9324 9.08106 20.1639 11.0692 17.0839 11.399C15.3536 11.5828 13.5937 11.2483 11.7348 10.8949C10.924 10.7394 10.0836 10.5793 9.24316 10.4662C6.5686 10.0987 2.88551 10.1976 0.527344 12.7418L2.28732 14.3153C4.03246 12.4308 7.19151 12.5439 8.91688 12.7794C9.69304 12.8878 10.4643 13.0339 11.28 13.1893C13.2328 13.5615 15.2548 13.9478 17.346 13.7217C21.0587 13.3212 24.0892 11.1493 27.0209 9.04808C27.3076 8.84078 27.5993 8.63348 27.886 8.43089C31.6581 5.75486 41.2144 0.0117631 48.3927 4.46867C52.2438 6.86202 54.2955 11.611 55.9517 15.4932H58.5273L58.1417 14.631C56.3669 10.4615 54.1571 5.27431 49.6682 2.48992H49.6731L49.6583 2.49463Z" fill="#221D20"/>
<path d="M49.6583 2.49463C41.249 -2.72551 30.6545 3.57823 26.4869 6.53223C26.1953 6.73953 25.9036 6.94683 25.6119 7.15884C22.9324 9.08106 20.1639 11.0692 17.0839 11.399C15.3536 11.5828 13.5937 11.2483 11.7348 10.8949C10.924 10.7394 10.0836 10.5793 9.24316 10.4662C6.5686 10.0987 2.88551 10.1976 0.527344 12.7418L2.28732 14.3153C4.03246 12.4308 7.19151 12.5439 8.91688 12.7794C9.69304 12.8878 10.4643 13.0339 11.28 13.1893C13.2328 13.5615 15.2548 13.9478 17.346 13.7217C21.0587 13.3212 24.0892 11.1493 27.0209 9.04808C27.3076 8.84078 27.5993 8.63348 27.886 8.43089C31.6581 5.75486 41.2144 0.0117631 48.3927 4.46867C52.2438 6.86202 54.2955 11.611 55.9517 15.4932H58.5273L58.1417 14.631C56.3669 10.4615 54.1571 5.27431 49.6682 2.48992H49.6731L49.6583 2.49463Z" fill="#221D20"/>
</svg>
