<svg width="47" height="47" viewBox="0 0 47 47" fill="none" xmlns="http://www.w3.org/2000/svg">
<path d="M0.359064 45.4573L0.359066 0.714476L46.6357 0.714478L46.6357 45.4573L39.1202 45.4573L39.1202 23.6441C39.1202 15.1096 32.1827 8.19563 23.6194 8.19563L23.3664 8.19563C14.803 8.19563 7.86558 15.1096 7.86558 23.6441L7.86558 45.4573L0.350027 45.4573L0.359064 45.4573Z" fill="black"/>
<path d="M46.6263 2.25739L46.6263 47.0002L0.349609 47.0002L0.34961 2.25739L7.86517 2.25739L7.86517 24.0707C7.86517 32.6051 14.8026 39.5191 23.366 39.5191L23.6189 39.5191C32.1823 39.5191 39.1198 32.6051 39.1198 24.0707L39.1198 2.25739L46.6353 2.25739L46.6263 2.25739Z" fill="black"/>
<path d="M28.8928 16.1432H27.3499C25.6991 16.1432 25.0356 16.5289 25.0356 17.686V20.0003H28.8928L28.1213 23.8574H25.0356V35.4289H21.1785V23.8574H18.0928V20.0003H21.1785V17.686C21.1785 14.6003 22.7213 12.286 25.8071 12.286C28.0442 12.286 28.8928 13.0574 28.8928 13.0574V16.1432Z" fill="black"/>
</svg>
