<svg width="47" height="47" viewBox="0 0 47 47" fill="none" xmlns="http://www.w3.org/2000/svg">
<path d="M23.1232 14.6001C14.615 14.6001 13.9492 15.2663 13.9492 23.7741V23.9404C13.9492 32.4482 14.615 33.1144 23.1232 33.1144H23.2895C31.7978 33.1144 32.4635 32.4482 32.4635 23.9404V23.8572C32.4635 15.2722 31.7914 14.6001 23.2064 14.6001H23.1232ZM28.7579 17.3772C29.2694 17.3759 29.685 17.7888 29.6864 18.3002C29.6877 18.8117 29.2748 19.2273 28.7634 19.2287C28.2519 19.2301 27.8363 18.8171 27.8349 18.3057C27.8335 17.7942 28.2465 17.3786 28.7579 17.3772ZM23.1955 19.2287C25.7514 19.2227 27.8289 21.2905 27.8349 23.8464C27.841 26.4023 25.7731 28.4798 23.2172 28.4858C20.6613 28.4918 18.5838 26.424 18.5778 23.8681C18.5718 21.3122 20.6396 19.2347 23.1955 19.2287ZM23.2 21.0801C21.6661 21.0838 20.4255 22.3306 20.4292 23.8645C20.4329 25.3979 21.6792 26.6381 23.2127 26.6344C24.7466 26.6307 25.9872 25.3844 25.9835 23.8509C25.9798 22.317 24.7335 21.0764 23.2 21.0801Z" fill="black"/>
<path d="M0.0729312 45.4572L0.0729332 0.714353L46.3496 0.714355L46.3496 45.4572L38.8341 45.4572L38.8341 23.6439C38.8341 15.1095 31.8966 8.1955 23.3332 8.1955L23.0803 8.1955C14.5169 8.1955 7.57945 15.1095 7.57945 23.6439L7.57945 45.4572L0.0638942 45.4572L0.0729312 45.4572Z" fill="black"/>
<path d="M46.3402 2.25726L46.3402 47.0001L0.0634766 47.0001L0.0634771 2.25726L7.57903 2.25726L7.57903 24.0705C7.57903 32.605 14.5165 39.519 23.0799 39.519L23.3328 39.519C31.8962 39.519 38.8336 32.605 38.8336 24.0705L38.8336 2.25726L46.3492 2.25726L46.3402 2.25726Z" fill="black"/>
</svg>
