<svg width="268" height="59" viewBox="0 0 268 59" fill="none" xmlns="http://www.w3.org/2000/svg">
<path d="M97.6173 48.0107C97.7417 47.0486 98.0139 46.2047 98.4337 45.4555C98.8536 44.7063 99.429 44.1227 100.152 43.6968C100.875 43.271 101.746 43.058 102.757 43.058C103.768 43.058 104.607 43.2552 105.338 43.6653C106.077 44.0754 106.637 44.6511 107.025 45.4082C107.414 46.1653 107.608 47.0328 107.608 48.0107H97.6173ZM106.901 41.3151C105.649 40.6448 104.234 40.3057 102.663 40.3057C101 40.3057 99.53 40.6842 98.2549 41.4413C96.972 42.1984 95.9768 43.2789 95.2615 44.6826C94.5461 46.0943 94.1885 47.7347 94.1885 49.6038C94.1885 51.4729 94.5384 53.1133 95.2459 54.5092C95.9534 55.9051 96.9487 56.9855 98.2393 57.7505C99.53 58.5234 101.023 58.9019 102.733 58.9019C104.102 58.9019 105.354 58.6496 106.481 58.1527C107.616 57.6559 108.549 56.954 109.288 56.0549C110.027 55.1637 110.509 54.1385 110.734 52.9871H107.329C107.018 53.965 106.45 54.7458 105.641 55.3057C104.833 55.8656 103.861 56.1495 102.726 56.1495C101.738 56.1495 100.86 55.9208 100.09 55.4477C99.3201 54.9824 98.7292 54.3278 98.3093 53.4839C97.8895 52.648 97.6484 51.6937 97.5862 50.6211H110.913V48.7678C110.913 46.9934 110.555 45.4792 109.84 44.2095C109.125 42.9397 108.145 41.9697 106.893 41.2994H106.909L106.901 41.3151Z" fill="#1C1C1C"/>
<path d="M101.054 38.8067H104.016L107.165 34.0117H103.573L101.054 38.8067Z" fill="#1C1C1C"/>
<path d="M126.72 53.0422C126.269 54.0359 125.631 54.8008 124.815 55.345C123.998 55.8892 123.05 56.1652 121.977 56.1652C120.904 56.1652 119.955 55.8971 119.123 55.3529C118.291 54.8087 117.646 54.0437 117.203 53.0501C116.752 52.0564 116.526 50.9128 116.526 49.6194C116.526 48.3261 116.752 47.1746 117.203 46.1888C117.654 45.1951 118.299 44.4302 119.123 43.886C119.947 43.3418 120.904 43.0658 121.977 43.0658C123.05 43.0658 123.998 43.3339 124.815 43.8781C125.631 44.4223 126.269 45.1873 126.72 46.181C127.171 47.1746 127.396 48.3182 127.396 49.6116C127.396 50.9049 127.171 52.0564 126.72 53.0422ZM127.365 42.4507C127.365 43.2787 127.388 43.9097 127.427 44.3355H127.365C126.844 43.0974 126.02 42.1194 124.908 41.3939C123.788 40.6683 122.529 40.3055 121.129 40.3055C119.73 40.3055 118.408 40.6683 117.187 41.3939C115.967 42.1194 114.995 43.1841 114.256 44.5879C113.517 45.9917 113.16 47.6715 113.16 49.6116C113.16 51.5516 113.525 53.2236 114.264 54.6352C115.002 56.0469 115.982 57.1037 117.195 57.8292C118.416 58.5548 119.73 58.9176 121.137 58.9176C122.544 58.9176 123.804 58.5548 124.916 57.8292C126.028 57.1037 126.852 56.1258 127.373 54.8876H127.435C127.412 55.3371 127.404 55.9759 127.404 56.804V58.405H130.584V33.4443H127.373V42.4585L127.365 42.4507Z" fill="#1C1C1C"/>
<path d="M138.211 34.4219H134.93V37.679H138.211V34.4219Z" fill="#1C1C1C"/>
<path d="M138.172 40.8184H134.961V58.3973H138.172V40.8184Z" fill="#1C1C1C"/>
<path d="M147.487 55.0851C147.137 54.7538 146.966 54.2333 146.966 53.4999V43.6182H152.354V40.8106H146.966V36.0156H143.747V40.8106H140.311V43.6182H143.747V53.7207C143.747 55.2507 144.136 56.4179 144.921 57.2065C145.699 57.9952 146.857 58.3895 148.389 58.3895H152.518V55.5819H149.05C148.358 55.5819 147.837 55.4163 147.487 55.093V55.0851Z" fill="#1C1C1C"/>
<path d="M156.895 48.0107C157.02 47.0486 157.292 46.2047 157.712 45.4555C158.131 44.7063 158.707 44.1227 159.43 43.6968C160.153 43.271 161.024 43.058 162.027 43.058C163.03 43.058 163.877 43.2552 164.616 43.6653C165.355 44.0754 165.914 44.6511 166.303 45.4082C166.692 46.1653 166.886 47.0328 166.886 48.0107H156.895ZM166.179 41.3151C164.927 40.6448 163.512 40.3057 161.941 40.3057C160.277 40.3057 158.808 40.6842 157.533 41.4413C156.25 42.1984 155.255 43.2789 154.539 44.6826C153.824 46.0943 153.466 47.7347 153.466 49.6038C153.466 51.4729 153.816 53.1133 154.524 54.5092C155.231 55.9051 156.227 56.9855 157.517 57.7505C158.808 58.5234 160.308 58.9019 162.011 58.9019C163.38 58.9019 164.631 58.6496 165.759 58.1527C166.894 57.6559 167.827 56.954 168.566 56.0549C169.304 55.1637 169.786 54.1385 170.012 52.9871H166.614C166.295 53.965 165.736 54.7458 164.927 55.3057C164.118 55.8656 163.146 56.1495 162.011 56.1495C161.024 56.1495 160.145 55.9208 159.375 55.4477C158.606 54.9824 158.015 54.3278 157.595 53.4839C157.175 52.648 156.934 51.6937 156.872 50.6211H170.199V48.7678C170.199 46.9934 169.841 45.4792 169.126 44.2095C168.41 42.9397 167.431 41.9697 166.179 41.2994H166.194L166.179 41.3151Z" fill="#1C1C1C"/>
<path d="M178.059 41.536C177.422 42.0171 176.877 42.7663 176.434 43.7916H176.372V40.8184H173.223V58.3973H176.434V48.4288C176.434 46.8121 176.753 45.6054 177.383 44.8168C178.013 44.0281 179.016 43.6338 180.376 43.6338H182.514V40.8262H180.843C179.622 40.8262 178.697 41.0628 178.052 41.5439L178.059 41.536Z" fill="#1C1C1C"/>
<path d="M189.558 41.5282C188.921 42.0093 188.377 42.7585 187.933 43.7837H187.871V40.8105H184.722V58.3895H187.933V48.421C187.933 46.8042 188.252 45.5976 188.882 44.809C189.512 44.0203 190.515 43.626 191.875 43.626H194.014V40.8184H192.342C191.121 40.8184 190.196 41.055 189.551 41.5361L189.558 41.5282Z" fill="#1C1C1C"/>
<path d="M206.656 50.4003C206.656 51.6543 206.415 52.7189 205.933 53.5786C205.451 54.4382 204.814 55.0849 204.028 55.5107C203.235 55.9366 202.388 56.1495 201.462 56.1495C200.327 56.1495 199.488 55.8814 198.943 55.3372C198.399 54.7931 198.119 54.0991 198.119 53.2394C198.119 52.435 198.399 51.7568 198.967 51.2284C199.534 50.7 200.405 50.4161 201.579 50.3924L202.932 50.3609C203.919 50.3609 204.697 50.211 205.28 49.9114C205.855 49.6117 206.291 49.1543 206.586 48.5391H206.649V50.3924L206.656 50.4003ZM210.124 55.3215C209.953 55.1559 209.875 54.8641 209.875 54.4618V46.3467C209.875 45.1322 209.634 44.0754 209.152 43.1842C208.67 42.2931 207.916 41.5833 206.882 41.0785C205.855 40.5659 204.541 40.3057 202.94 40.3057C200.561 40.3057 198.749 40.8498 197.489 41.9539C196.23 43.0501 195.538 44.5722 195.413 46.5123H198.695C198.757 45.4003 199.169 44.5486 199.939 43.9571C200.708 43.3577 201.719 43.0659 202.979 43.0659C204.052 43.0659 204.93 43.3025 205.63 43.7678C206.322 44.241 206.672 44.9035 206.672 45.7473C206.672 46.4098 206.454 46.9145 206.027 47.2615C205.591 47.6164 204.946 47.7899 204.091 47.7899H201.354C199.464 47.7899 197.894 48.2473 196.642 49.1621C195.39 50.077 194.768 51.465 194.768 53.3183C194.768 54.4855 195.025 55.5029 195.546 56.3546C196.059 57.2063 196.766 57.8451 197.668 58.271C198.57 58.6969 199.581 58.9098 200.693 58.9098C202.1 58.9098 203.329 58.5707 204.378 57.8846C205.428 57.1984 206.229 56.1969 206.773 54.8798H206.835V55.771C206.835 56.5833 207.084 57.2221 207.574 57.6874C208.064 58.1606 208.756 58.3893 209.642 58.3893H211.78V55.5817H211.026C210.606 55.5817 210.311 55.495 210.147 55.3294L210.124 55.3215Z" fill="#1C1C1C"/>
<path d="M226.413 41.1417C225.534 40.5818 224.477 40.2979 223.264 40.2979C221.981 40.2979 220.861 40.6133 219.913 41.2442C218.957 41.8751 218.218 42.7584 217.689 43.9177H217.627V40.8184H214.478V58.3973H217.697V48.6812C217.697 47.4272 217.907 46.3704 218.327 45.5345C218.747 44.6906 219.299 44.0755 219.983 43.6811C220.667 43.2868 221.421 43.0897 222.238 43.0897C223.388 43.0897 224.298 43.4919 224.951 44.2884C225.604 45.0928 225.931 46.3389 225.931 48.0423V58.3973H229.142V47.6875C229.142 46.1102 228.909 44.7695 228.45 43.6575C227.984 42.5455 227.315 41.7095 226.428 41.1496L226.413 41.1417Z" fill="#1C1C1C"/>
<path d="M239.079 38.791H242.049L245.198 34.0039H241.606L239.079 38.791Z" fill="#1C1C1C"/>
<path d="M235.65 48.002C235.774 47.0399 236.046 46.196 236.466 45.4468C236.886 44.6976 237.461 44.114 238.184 43.6881C238.907 43.2623 239.778 43.0493 240.789 43.0493C241.8 43.0493 242.639 43.2544 243.37 43.6566C244.109 44.0667 244.669 44.6424 245.057 45.3995C245.446 46.1566 245.641 47.0241 245.641 48.002H235.65ZM244.925 41.2985C243.673 40.6282 242.258 40.2891 240.688 40.2891C239.024 40.2891 237.554 40.6676 236.279 41.4247C234.996 42.1818 234.001 43.2623 233.286 44.666C232.571 46.0777 232.213 47.7181 232.213 49.5872C232.213 51.4563 232.563 53.0967 233.27 54.4926C233.978 55.8885 234.973 56.9689 236.264 57.7339C237.554 58.5068 239.047 58.8853 240.758 58.8853C242.126 58.8853 243.378 58.633 244.505 58.1361C245.641 57.6393 246.574 56.9374 247.312 56.0383C248.051 55.1471 248.533 54.1219 248.758 52.9705H245.353C245.042 53.9484 244.474 54.7292 243.666 55.2891C242.857 55.849 241.885 56.1329 240.75 56.1329C239.763 56.1329 238.884 55.9042 238.114 55.4311C237.345 54.9658 236.754 54.3112 236.334 53.4673C235.914 52.6314 235.673 51.6771 235.611 50.6045H248.937V48.7512C248.937 46.9768 248.58 45.4626 247.864 44.1929C247.149 42.9231 246.169 41.9531 244.918 41.2828H244.933L244.925 41.2985Z" fill="#1C1C1C"/>
<path d="M254.622 48.002C254.754 47.0399 255.026 46.196 255.438 45.4468C255.858 44.6976 256.433 44.114 257.156 43.6881C257.879 43.2623 258.75 43.0493 259.753 43.0493C260.756 43.0493 261.604 43.2465 262.335 43.6566C263.073 44.0667 263.633 44.6424 264.022 45.3995C264.411 46.1566 264.605 47.0241 264.605 48.002H254.614H254.622ZM267.917 48.767C267.917 46.9925 267.56 45.4783 266.844 44.2086C266.129 42.9389 265.149 41.9689 263.897 41.2985C262.646 40.6282 261.231 40.2891 259.66 40.2891C257.996 40.2891 256.534 40.6676 255.251 41.4247C253.969 42.1818 252.973 43.2623 252.258 44.666C251.543 46.0777 251.185 47.7181 251.185 49.5872C251.185 51.4563 251.535 53.0967 252.242 54.4926C252.95 55.8885 253.945 56.9689 255.236 57.7339C256.527 58.4989 258.027 58.8853 259.73 58.8853C261.098 58.8853 262.342 58.633 263.478 58.1282C264.613 57.6314 265.546 56.9295 266.284 56.0304C267.023 55.1393 267.505 54.114 267.731 52.9626H264.325C264.014 53.9405 263.447 54.7213 262.638 55.2812C261.829 55.8411 260.857 56.1251 259.722 56.1251C258.735 56.1251 257.856 55.8885 257.086 55.4232C256.317 54.9579 255.726 54.3033 255.306 53.4594C254.886 52.6235 254.645 51.6692 254.583 50.5967H267.909V48.7433H267.925L267.917 48.767Z" fill="#1C1C1C"/>
<path d="M6.17305 21.8668C7.79807 22.8132 9.67966 23.2943 11.8178 23.2943C13.7539 23.2943 15.4488 22.9078 16.9184 22.1271C18.3879 21.3463 19.5386 20.3053 20.3783 19.0119C21.218 17.7186 21.7312 16.2753 21.9178 14.698H18.4889C18.3801 15.6444 18.0458 16.5592 17.4782 17.4189C16.9106 18.2864 16.1408 19.004 15.1845 19.5719C14.2281 20.1397 13.1085 20.4315 11.8178 20.4315C10.4261 20.4315 9.17427 20.0766 8.07797 19.3668C6.9739 18.6649 6.11085 17.6476 5.47329 16.3305C4.83572 15.0135 4.52471 13.4678 4.52471 11.6933C4.52471 9.91885 4.81239 8.35733 5.39553 7.05607C5.97867 5.76269 6.81839 4.769 7.92247 4.0671C9.01877 3.36521 10.325 3.0182 11.8178 3.0182C13.1474 3.0182 14.2981 3.29423 15.2778 3.83839C16.2575 4.38256 17.0117 5.12389 17.5559 6.05449C18.0924 6.9772 18.4112 7.99455 18.4889 9.09077H21.9178C21.7701 7.41884 21.288 5.91253 20.4638 4.54818C19.6397 3.19171 18.4889 2.11126 17.0194 1.32262C15.5422 0.533971 13.8083 0.139648 11.8101 0.139648C9.58636 0.139648 7.66589 0.612836 6.05642 1.55132C4.44696 2.48981 3.20293 3.83051 2.33211 5.57341C1.44574 7.30055 1.02588 9.34314 1.02588 11.6854C1.02588 14.004 1.47684 16.0466 2.38654 17.8053C3.28846 19.564 4.55581 20.9205 6.18083 21.8668H6.17305Z" fill="#1C1C1C"/>
<path d="M35.9521 13.0415H36.0143V14.879C36.0143 16.1251 35.7732 17.1661 35.299 18.0257C34.8169 18.8774 34.1949 19.5162 33.4174 19.9342C32.6398 20.3601 31.7846 20.5651 30.8749 20.5651C29.7552 20.5651 28.9233 20.297 28.379 19.7607C27.8425 19.2244 27.5704 18.5304 27.5704 17.6866C27.5704 16.8822 27.8503 16.2197 28.4179 15.6913C28.9777 15.1629 29.8408 14.8869 31.0071 14.8711L32.3444 14.8396C33.3241 14.8396 34.0938 14.6897 34.6692 14.3979C35.2368 14.1061 35.6722 13.6487 35.9598 13.0415H35.9521ZM33.4562 12.2765H30.7427C28.8766 12.2765 27.3138 12.7339 26.0854 13.6329C24.8491 14.5399 24.2349 15.9121 24.2349 17.7418C24.2349 18.9011 24.4914 19.9027 24.9968 20.7465C25.5022 21.5904 26.2098 22.2292 27.1039 22.6393C27.9981 23.0651 28.9933 23.2702 30.0974 23.2702C31.4891 23.2702 32.7098 22.9311 33.7439 22.2528C34.7858 21.5746 35.5789 20.5888 36.1153 19.2796H36.1775V20.1708C36.1775 20.9752 36.4264 21.6061 36.9084 22.0636C37.3905 22.5289 38.0747 22.7576 38.9533 22.7576H41.0759V19.9736H40.3295C39.9096 19.9736 39.622 19.8948 39.4509 19.7213C39.2876 19.5557 39.2021 19.2639 39.2021 18.8695V10.8411C39.2021 9.63451 38.9611 8.5935 38.4868 7.71022C38.0047 6.81905 37.2583 6.12504 36.2398 5.62819C35.2212 5.12346 33.9227 4.87109 32.3444 4.87109C29.9963 4.87109 28.1924 5.41526 26.9484 6.50359C25.6966 7.59192 25.0124 9.09035 24.8958 11.0068H28.138C28.2002 9.91054 28.6123 9.06669 29.3743 8.4752C30.1362 7.88372 31.1392 7.58403 32.3833 7.58403C33.4485 7.58403 34.3193 7.82063 35.0035 8.27804C35.6877 8.74334 36.0376 9.39792 36.0376 10.2418C36.0376 10.8963 35.8277 11.3932 35.4 11.7402C34.9724 12.0872 34.3348 12.2607 33.4873 12.2607H33.4796L33.4562 12.2765Z" fill="#1C1C1C"/>
<path d="M46.9309 12.7811C46.9309 11.6849 47.1097 10.7464 47.4751 9.96567C47.8406 9.18491 48.3382 8.60131 48.9524 8.21488C49.5744 7.82844 50.2742 7.63128 51.0362 7.63128C52.0547 7.63128 52.8711 7.99406 53.4698 8.71961C54.0763 9.44516 54.3717 10.5493 54.3717 12.024V22.7812H57.5518V12.7811C57.5518 11.6613 57.7384 10.7149 58.1116 9.9499C58.4848 9.17702 58.9824 8.60131 59.6044 8.21488C60.2264 7.82844 60.9107 7.63128 61.6571 7.63128C62.699 7.63128 63.5154 7.99406 64.1218 8.71961C64.7283 9.44516 65.0237 10.5493 65.0237 12.024V22.7812H68.2038V11.677C68.2038 10.289 67.9705 9.0745 67.5118 8.05715C67.0531 7.03191 66.4077 6.25115 65.5602 5.6991C64.7127 5.15493 63.7253 4.87891 62.5823 4.87891C61.2994 4.87891 60.1876 5.22591 59.2623 5.9278C58.3371 6.62181 57.6451 7.5603 57.1941 8.74327H57.1319C56.7587 7.52087 56.1211 6.57449 55.227 5.89626C54.3329 5.21802 53.2599 4.88679 52.0159 4.88679C50.7718 4.88679 49.7533 5.20225 48.898 5.84894C48.0427 6.49563 47.3818 7.30793 46.8998 8.30163H46.8376V5.39153H43.7197V22.789H46.8998V12.789H46.9153L46.9309 12.7811Z" fill="#1C1C1C"/>
<path d="M75.7142 10.6833C76.1496 9.70541 76.7716 8.94832 77.5802 8.40415C78.3888 7.86787 79.3219 7.59973 80.3871 7.59973C81.4523 7.59973 82.4164 7.86787 83.225 8.40415C84.0336 8.94043 84.6634 9.69753 85.1066 10.6833C85.5576 11.6613 85.783 12.7969 85.783 14.0824C85.783 15.3679 85.5576 16.5035 85.1066 17.4815C84.6556 18.4594 84.0336 19.2165 83.225 19.7606C82.4164 20.2969 81.4678 20.5651 80.3871 20.5651C79.3063 20.5651 78.3888 20.2969 77.5802 19.7606C76.7716 19.2244 76.1418 18.4673 75.7142 17.4893C75.2788 16.5114 75.0533 15.3758 75.0533 14.0903C75.0533 12.8048 75.271 11.6691 75.7142 10.6912M75.0611 21.2039C75.0611 20.3837 75.0533 19.7449 75.03 19.3111H75.0922C75.5898 20.5335 76.3906 21.5035 77.4947 22.2212C78.591 22.9389 79.8506 23.3017 81.2657 23.3017C82.6807 23.3017 83.9248 22.9468 85.1299 22.2212C86.3351 21.5035 87.307 20.4468 88.0456 19.0587C88.7843 17.6628 89.1497 16.0067 89.1497 14.0903C89.1497 12.1739 88.7843 10.5177 88.0456 9.12182C87.307 7.72591 86.3351 6.66913 85.1299 5.95935C83.9248 5.24168 82.6341 4.87891 81.2657 4.87891C79.8972 4.87891 78.5988 5.2338 77.4947 5.95935C76.3906 6.67702 75.5898 7.64705 75.0922 8.86945H75.03C75.0533 8.44358 75.0611 7.82055 75.0611 7.00036V5.38364H71.9121V29.1061H75.0611V21.196V21.2039Z" fill="#1C1C1C"/>
<path d="M94.8488 22.4501C95.7274 23.0101 96.7848 23.294 98.0133 23.294C99.2417 23.294 100.354 22.9864 101.287 22.3871C102.22 21.7877 102.943 20.8965 103.44 19.7135H103.503V22.7814H106.62V5.37598H103.44V14.9896C103.44 16.2593 103.238 17.3003 102.834 18.1205C102.43 18.9407 101.885 19.5479 101.209 19.9423C100.532 20.3287 99.7782 20.5259 98.9541 20.5259C97.8111 20.5259 96.917 20.1315 96.2716 19.3587C95.6263 18.5779 95.3075 17.3318 95.3075 15.6284V5.37598H92.1274V15.9675C92.1274 17.529 92.3607 18.8539 92.835 19.9501C93.3093 21.0464 93.9779 21.8744 94.8643 22.4265L94.8488 22.4501Z" fill="#1C1C1C"/>
<path d="M120.593 22.5368C121.658 22.0479 122.459 21.3617 123.026 20.4942C123.586 19.6267 123.866 18.633 123.866 17.521C123.866 16.0226 123.361 14.8002 122.358 13.8381C121.347 12.8759 119.901 12.3948 118.003 12.3948H115.974C115.096 12.3948 114.427 12.2135 113.945 11.8586C113.463 11.5037 113.229 10.9674 113.229 10.2418C113.229 9.42165 113.533 8.76708 114.147 8.29389C114.761 7.8207 115.593 7.58411 116.627 7.58411C117.794 7.58411 118.672 7.88379 119.279 8.46739C119.885 9.05887 120.212 9.90272 120.274 10.9989H123.547C123.508 9.77654 123.213 8.70398 122.669 7.77338C122.132 6.85067 121.347 6.12511 120.313 5.62038C119.279 5.11565 118.05 4.86328 116.619 4.86328C115.189 4.86328 114.023 5.09987 113.012 5.57306C112.001 6.04625 111.231 6.70083 110.687 7.53679C110.15 8.37275 109.878 9.31124 109.878 10.368C109.878 11.8428 110.376 13.0258 111.371 13.909C112.366 14.8002 113.727 15.234 115.453 15.234H117.319C118.4 15.234 119.201 15.439 119.722 15.8491C120.243 16.2592 120.499 16.8428 120.499 17.5999C120.499 18.1914 120.352 18.7119 120.048 19.1693C119.745 19.6267 119.317 19.9658 118.758 20.1945C118.198 20.4311 117.537 20.5415 116.79 20.5415C115.624 20.5415 114.699 20.2576 113.999 19.674C113.299 19.0904 112.918 18.1993 112.864 17.0005H109.56C109.622 18.2703 109.941 19.3744 110.524 20.3207C111.107 21.2671 111.931 22.0005 113.004 22.5053C114.069 23.01 115.337 23.2624 116.798 23.2624C118.26 23.2624 119.512 23.01 120.577 22.521H120.585L120.593 22.5368Z" fill="#1C1C1C"/>
<path d="M78.1946 36.7878C64.969 28.0496 48.3068 38.6017 41.7523 43.5465C41.2936 43.8935 40.8348 44.2405 40.3761 44.5954C36.1619 47.8131 31.8078 51.1412 26.9639 51.6932C24.2426 52.0008 21.4746 51.4409 18.5512 50.8494C17.276 50.5891 15.9542 50.321 14.6325 50.1317C10.4261 49.5166 4.63357 49.6822 0.924805 53.9409L3.69277 56.5749C6.43741 53.4204 11.4058 53.6096 14.1193 54.004C15.34 54.1853 16.5529 54.4298 17.8358 54.6901C20.907 55.3131 24.0871 55.9598 27.376 55.5812C33.2152 54.9109 37.9813 51.2752 42.592 47.7579C43.043 47.4109 43.5017 47.0639 43.9527 46.7248C49.8852 42.2453 64.9146 32.6317 76.2042 40.0922C82.261 44.0986 85.4877 52.0481 88.0924 58.5465H92.1433L91.5368 57.1033C88.7455 50.1238 85.27 41.4408 78.2102 36.7799H78.2179L78.1946 36.7878Z" fill="#1C1C1C"/>
<path d="M78.1946 36.7878C64.969 28.0496 48.3068 38.6017 41.7523 43.5465C41.2936 43.8935 40.8348 44.2405 40.3761 44.5954C36.1619 47.8131 31.8078 51.1412 26.9639 51.6932C24.2426 52.0008 21.4746 51.4409 18.5512 50.8494C17.276 50.5891 15.9542 50.321 14.6325 50.1317C10.4261 49.5166 4.63357 49.6822 0.924805 53.9409L3.69277 56.5749C6.43741 53.4204 11.4058 53.6096 14.1193 54.004C15.34 54.1853 16.5529 54.4298 17.8358 54.6901C20.907 55.3131 24.0871 55.9598 27.376 55.5812C33.2152 54.9109 37.9813 51.2752 42.592 47.7579C43.043 47.4109 43.5017 47.0639 43.9527 46.7248C49.8852 42.2453 64.9146 32.6317 76.2042 40.0922C82.261 44.0986 85.4877 52.0481 88.0924 58.5465H92.1433L91.5368 57.1033C88.7455 50.1238 85.27 41.4408 78.2102 36.7799H78.2179L78.1946 36.7878Z" fill="#1C1C1C"/>
<path d="M232.726 20.2821C231.599 20.2821 230.767 20.0139 230.231 19.4777C229.686 18.9335 229.422 18.2474 229.422 17.4035C229.422 16.5991 229.702 15.9366 230.269 15.4083C230.829 14.8799 231.692 14.6038 232.866 14.5881L234.211 14.5565C235.191 14.5565 235.969 14.4067 236.536 14.1149C237.104 13.8152 237.539 13.3657 237.835 12.7505H237.897V14.5881C237.897 15.8341 237.656 16.883 237.174 17.7426C236.692 18.6023 236.062 19.2411 235.284 19.659C234.507 20.0849 233.652 20.29 232.734 20.29L232.726 20.2821ZM237.982 19.0124H238.045V19.9035C238.045 20.7079 238.293 21.3389 238.783 21.8042C239.273 22.2695 239.957 22.5061 240.836 22.5061H242.959V19.7143H242.212C241.792 19.7143 241.505 19.6275 241.334 19.4619C241.17 19.2963 241.085 19.0045 241.085 18.6102V10.5581C241.085 9.35934 240.844 8.30256 240.362 7.41927C239.88 6.52811 239.133 5.8341 238.107 5.32937C237.088 4.81675 235.782 4.57227 234.196 4.57227C231.84 4.57227 230.036 5.11643 228.784 6.20476C227.533 7.29309 226.848 8.7994 226.724 10.7237H229.974C230.036 9.62748 230.448 8.78363 231.21 8.19215C231.972 7.60066 232.975 7.30098 234.227 7.30098C235.292 7.30098 236.163 7.52969 236.855 8.00287C237.547 8.46817 237.889 9.12275 237.889 9.9666C237.889 10.6212 237.671 11.1259 237.252 11.4729C236.824 11.8199 236.186 12.0013 235.331 12.0013H232.61C230.736 12.0013 229.173 12.4587 227.937 13.3657C226.701 14.2726 226.079 15.6527 226.079 17.4903C226.079 18.6575 226.335 19.659 226.841 20.5029C227.354 21.3468 228.054 21.9856 228.948 22.4035C229.842 22.8294 230.845 23.0345 231.949 23.0345C233.341 23.0345 234.569 22.6953 235.611 22.025C236.653 21.3468 237.446 20.3609 237.99 19.0439L237.982 19.0124Z" fill="#1C1C1C"/>
<path d="M254.862 7.85235V5.06055H253.206C252.001 5.06055 251.076 5.29714 250.438 5.77821C249.801 6.2514 249.264 7.00061 248.829 8.01797H248.767V5.06843H245.641V22.5054H248.829V12.6079C248.829 10.999 249.148 9.80819 249.77 9.01955C250.392 8.23879 251.379 7.84446 252.74 7.84446H254.862V7.85235Z" fill="#1C1C1C"/>
<path d="M259.178 17.8688C259.178 19.3909 259.558 20.5423 260.336 21.3231C261.106 22.1038 262.256 22.4981 263.773 22.4981H267.87V19.7063H264.434C263.742 19.7063 263.236 19.5407 262.886 19.2174C262.544 18.894 262.365 18.3656 262.365 17.648V7.853H267.715V5.0612H262.365V0.305664H259.178V5.0612H255.772V7.853H259.178V17.8767V17.8688Z" fill="#1C1C1C"/>
</svg>
