<svg width="88" height="55" viewBox="0 0 88 55" fill="none" xmlns="http://www.w3.org/2000/svg">
<path d="M63.5192 54.7143L10.5508 54.7143L10.5508 0.115234L63.5192 0.115237L63.5192 8.98239L37.6958 8.98239C27.5923 8.98239 19.4073 17.1675 19.4073 27.2709L19.4073 27.5693C19.4073 37.6727 27.5923 45.8578 37.6958 45.8578L63.5192 45.8578L63.5192 54.725L63.5192 54.7143Z" fill="black"/>
<path d="M23.72 0.125537L76.6885 0.125542L76.6885 54.7246L23.72 54.7246L23.72 45.8575L49.5435 45.8575C59.6469 45.8575 67.832 37.6724 67.832 27.569L67.832 27.2705C67.832 17.1671 59.6469 8.98203 49.5435 8.98203L23.72 8.98203L23.72 0.114875L23.72 0.125537Z" fill="black"/>
<circle cx="79.9292" cy="27.4194" r="7.75729" fill="white"/>
<circle cx="8.21237" cy="27.4194" r="7.75729" fill="white"/>
</svg>
