<svg width="28" height="23" viewBox="0 0 28 23" fill="none" xmlns="http://www.w3.org/2000/svg">
<path d="M25.6843 13.0246L9.19354 21.7195C8.31403 22.1833 7.18844 21.9285 6.69944 21.155L5.91949 19.9213C5.5992 19.4146 5.74239 18.7693 6.25932 18.4091C7.19935 17.7536 7.47112 16.579 6.90022 15.676C6.32931 14.7729 5.07075 14.4052 3.98792 14.8163C3.39789 15.0423 2.70067 14.8298 2.38404 14.329L1.60409 13.0952C1.11509 12.3217 1.43628 11.3041 2.31579 10.8404L18.8065 2.14546C19.686 1.68173 20.8116 1.93651 21.3006 2.71L22.0806 3.94372C22.4008 4.45035 22.2576 5.09566 21.7407 5.45587C20.8007 6.11137 20.5289 7.28599 21.0998 8.18904C21.6707 9.09209 22.9293 9.45982 24.0121 9.04874C24.6022 8.82272 25.2994 9.03522 25.616 9.53605L26.396 10.7698C26.885 11.5433 26.5638 12.5609 25.6843 13.0246Z" stroke="black" stroke-width="2" stroke-miterlimit="10"/>
</svg>
