<svg width="22" height="19" fill="none" xmlns="http://www.w3.org/2000/svg"><path d="M18.978.058a2.526 2.526 0 0 0-1.842 1.636c-.126.357-.158.988-.07 1.368.161.694.679 1.353 1.304 1.659.391.192.697.264 1.122.265 1.867.003 3.075-1.965 2.23-3.634-.281-.556-.878-1.05-1.5-1.241-.344-.105-.904-.129-1.244-.053M0 2.842v1.155h14.997v-2.31H0v1.155m18.957 4.216c-.131.029-.395.13-.585.225a2.504 2.504 0 0 0-1.242 1.413c-.089.246-.098.315-.097.801 0 .488.008.554.101.806.364.99 1.224 1.633 2.244 1.678.464.02.805-.049 1.205-.244a2.485 2.485 0 0 0 1.297-1.489c.084-.254.097-.354.097-.751 0-.398-.013-.498-.097-.752a2.518 2.518 0 0 0-1.64-1.631c-.315-.104-.947-.132-1.283-.056M0 9.442v1.155h14.997v-2.31H0v1.155m19.067 4.59c-.725.121-1.462.67-1.788 1.331-.218.444-.277.73-.255 1.247.013.327.038.482.112.689.373 1.058 1.402 1.752 2.496 1.684a2.488 2.488 0 0 0 2.357-2.358c.075-1.194-.779-2.315-1.951-2.563a3.703 3.703 0 0 0-.971-.03M0 16.005v1.155h14.997v-2.31H0v1.155" fill-rule="evenodd" fill="#000"/></svg>