<svg width="121" height="50" viewBox="0 0 121 50" fill="none" xmlns="http://www.w3.org/2000/svg">
<g clip-path="url(#clip0_1192_2424)">
<path d="M50.0483 13.207H51.7416L53.3398 15.9343L54.9381 13.207H56.6313V19.8375H55.2901V15.1194L53.8148 17.5639H52.8704L51.3951 15.1194V19.8375H50.0539V13.207H50.0483Z" fill="black"/>
<path d="M58.4697 13.207H59.8109V19.8375H58.4697V13.207Z" fill="black"/>
<path d="M61.6665 13.207H63.3877L66.3467 17.9531V13.207H67.6879V19.8375H65.9667L63.0077 15.0718V19.8375H61.6665V13.207Z" fill="black"/>
<path d="M69.54 13.207H70.8812V19.8375H69.54V13.207Z" fill="black"/>
<path d="M73.1138 18.0212C73.5106 18.5336 74.0415 18.836 74.578 18.836C75.1144 18.836 75.4302 18.5532 75.4302 18.0688C75.4302 16.8844 72.4041 17.1504 72.4041 14.9412C72.4041 13.8884 73.2647 13.0176 74.5221 13.0176C75.514 13.0176 76.2796 13.4628 76.8384 14.1348L75.8549 15.0168C75.4665 14.5156 75.0334 14.1936 74.5305 14.1936C74.0666 14.1936 73.7649 14.496 73.7649 14.8852C73.7649 16.0696 76.7909 15.7952 76.7909 18.0408C76.7713 19.2728 75.8074 20.0316 74.5975 20.0316C73.4827 20.0316 72.7254 19.6256 72.1387 18.9228L73.1138 18.024V18.0212Z" fill="black"/>
<path d="M77.4727 13.207H82.8989V14.4278H80.8564V19.8375H79.5152V14.4278H77.4727V13.207Z" fill="black"/>
<path d="M84.0811 13.2074H87.937V14.3526H85.4222V15.887H87.5597V17.0322H85.4222V18.6898H87.937V19.835H84.0811V13.2046V13.2074ZM84.1956 11.3594H85.5759L86.6433 12.639H85.4139L84.1956 11.3594Z" fill="black"/>
<path d="M89.4985 13.207H91.5215C92.9772 13.207 93.8769 13.9546 93.8769 15.1866C93.8769 15.9819 93.4886 16.5783 92.818 16.9003L94.8968 19.8375H93.2902L91.5327 17.1551H90.8425V19.8375H89.5013V13.207H89.4985ZM90.8425 14.355V16.0127H91.5997C92.1669 16.0127 92.4966 15.7103 92.4966 15.1698C92.4966 14.6686 92.1669 14.355 91.5997 14.355H90.8425Z" fill="black"/>
<path d="M95.7295 13.2079H99.5854V14.3531H97.0707V15.8875H99.2082V17.0327H97.0707V18.6903H99.5854V19.8355H95.7295V13.2051V13.2079Z" fill="black"/>
<path d="M50.0483 22.7695H52.6469C54.7453 22.7695 56.1647 24.2955 56.1647 26.0848C56.1647 27.874 54.7453 29.4 52.6469 29.4H50.0483V22.7695ZM51.3895 23.9931V28.1792H52.6664C53.8959 28.1792 54.7844 27.2608 54.7844 26.0848C54.7844 24.9087 53.8959 23.9903 52.6664 23.9903H51.3895V23.9931Z" fill="black"/>
<path d="M57.4585 22.7704H61.3144V23.9156H58.7997V25.45H60.9372V26.5952H58.7997V28.2528H61.3144V29.398H57.4585V22.7676V22.7704Z" fill="black"/>
<path d="M65.335 22.7695H66.6761V28.1792H69.1909V29.4H65.335V22.7695Z" fill="black"/>
<path d="M72.3315 22.7695H74.089L76.5954 29.4H75.1676L74.5333 27.6752H71.8873L71.253 29.4H69.8252L72.3315 22.7695ZM74.117 26.5328L73.2089 24.0407L72.3008 26.5328H74.117Z" fill="black"/>
<path d="M84.7513 27.4233L85.8103 28.2381C85.2039 29.0613 84.2232 29.5933 83.0217 29.5933C80.9317 29.5933 79.5039 27.9833 79.5039 26.0877C79.5039 24.192 80.9317 22.582 83.0217 22.582C84.2232 22.582 85.2067 23.1224 85.8103 23.926L84.7513 24.7492C84.3741 24.2088 83.7789 23.8392 83.0217 23.8392C81.7727 23.8392 80.8842 24.8164 80.8842 26.0849C80.8842 27.3533 81.7727 28.3305 83.0217 28.3305C83.7789 28.3305 84.3741 27.9609 84.7513 27.4205V27.4233Z" fill="black"/>
<path d="M90.8036 22.7695H92.1448V26.8044C92.1448 28.5488 91.1249 29.5904 89.4596 29.5904C87.7943 29.5904 86.7856 28.5488 86.7856 26.8044V22.7695H88.1268V26.9192C88.1268 27.8096 88.627 28.3304 89.468 28.3304C90.3091 28.3304 90.8008 27.8096 90.8008 26.9192V22.7695H90.8036Z" fill="black"/>
<path d="M93.8101 22.7695H95.1512V28.1792H97.666V29.4H93.8101V22.7695Z" fill="black"/>
<path d="M97.3921 22.7695H102.818V23.9903H100.776V29.4H99.4346V23.9903H97.3921V22.7695Z" fill="black"/>
<path d="M107.907 22.7695H109.248V26.8044C109.248 28.5488 108.228 29.5904 106.563 29.5904C104.897 29.5904 103.886 28.5488 103.886 26.8044V22.7695H105.227V26.9192C105.227 27.8096 105.727 28.3304 106.568 28.3304C107.409 28.3304 107.901 27.8096 107.901 26.9192V22.7695H107.907Z" fill="black"/>
<path d="M110.913 22.7695H112.936C114.392 22.7695 115.289 23.5171 115.289 24.7491C115.289 25.5444 114.9 26.1408 114.23 26.4628L116.309 29.4H114.702L112.944 26.7176H112.254V29.4H110.913V22.7695ZM112.254 23.9175V25.5752H113.011C113.579 25.5752 113.908 25.2728 113.908 24.7323C113.908 24.2311 113.579 23.9175 113.011 23.9175H112.254Z" fill="black"/>
<path d="M117.144 22.7704H121V23.9156H118.485V25.45H120.623V26.5952H118.485V28.2528H121V29.398H117.144V22.7676V22.7704Z" fill="black"/>
<path d="M71.5802 47.7144C71.759 47.7144 71.9154 47.8516 71.8316 48.196L70.9962 48.3892C71.1415 48 71.3846 47.7144 71.5774 47.7144M72.0412 49.0612H71.8763C71.6668 49.3104 71.4432 49.5036 71.2225 49.5036C71.0018 49.5036 70.8788 49.3664 70.8788 49.0612C70.8788 48.9352 70.8928 48.8092 70.9179 48.6916L72.2619 48.2492C72.5246 47.6276 72.2088 47.3532 71.84 47.3532C71.2057 47.3532 70.4821 48.4172 70.4821 49.3524C70.4821 49.7696 70.6804 49.9992 70.9906 49.9992C71.3538 49.9992 71.7338 49.6436 72.044 49.0612M71.7757 47.104L72.723 46.2192V46.1184H72.2144L71.6332 47.1068H71.7785L71.7757 47.104ZM68.8726 47.7284H69.3197L68.61 49.6688C68.5457 49.834 68.6351 49.9992 68.8028 49.9992C69.2051 49.9992 69.8562 49.6016 70.0825 49.0556H69.9568C69.7779 49.246 69.4315 49.498 69.1381 49.5512L69.7891 47.7284H70.4541L70.5379 47.4512H69.8925L70.1412 46.7512H69.8841L69.4231 47.4512L68.8754 47.5296V47.7284H68.8726ZM68.2719 47.636C68.325 47.4568 68.2048 47.3532 68.1126 47.3532C67.7243 47.3532 67.2632 47.7032 67.0788 48.1932H67.2045C67.3303 48.014 67.5454 47.8152 67.7438 47.7788L67.0006 49.7136C66.9335 49.8928 67.0676 49.9964 67.1598 49.9964C67.5287 49.9964 67.9618 49.6408 68.1462 49.1564H68.0204C67.8947 49.3356 67.6795 49.5344 67.4812 49.5708L68.2719 47.636ZM68.4088 46.6616C68.5848 46.6616 68.7301 46.5216 68.7301 46.3396C68.7301 46.1576 68.5848 46.0176 68.4088 46.0176C68.2328 46.0176 68.0875 46.1632 68.0875 46.3396C68.0875 46.516 68.2272 46.6616 68.4088 46.6616ZM64.1338 49.638C64.036 49.8564 64.1394 49.9992 64.3517 49.9992C64.4831 49.9992 64.5417 49.9656 64.5948 49.8228L65.1089 48.4564C65.3464 48.1652 65.8354 47.8544 66.031 47.8544C66.1707 47.8544 66.1512 47.972 66.0589 48.1456L65.2682 49.6688C65.19 49.82 65.2934 49.9992 65.461 49.9992C65.8494 49.9992 66.3104 49.6492 66.4948 49.1592H66.3691C66.2434 49.3384 66.0282 49.5372 65.8298 49.5736L66.5088 48.1988C66.5954 48.0224 66.6401 47.8572 66.6401 47.7284C66.6401 47.5044 66.5144 47.3588 66.2797 47.3588C65.9444 47.3588 65.6063 47.7368 65.2011 48.2044V47.8432C65.2011 47.5856 65.1173 47.356 64.8854 47.356C64.7401 47.356 64.6004 47.482 64.4691 47.6612V47.7088C64.7206 47.6948 64.8323 48.0728 64.6535 48.4732L64.1282 49.6408L64.1338 49.638ZM64.1226 47.9468C64.2148 47.6304 64.1673 47.3532 63.9242 47.3532C63.6392 47.3532 63.5638 47.5716 63.2732 48.1988V47.8376C63.2732 47.58 63.1894 47.3504 62.9575 47.3504C62.6864 47.3504 62.4377 47.7732 62.2477 48.1904H62.3735C62.5048 48 62.625 47.888 62.7227 47.888C62.8401 47.888 62.9016 48.0672 62.7227 48.4676L62.1975 49.6352C62.0997 49.8536 62.203 49.9964 62.4154 49.9964C62.5467 49.9964 62.6054 49.9628 62.6585 49.82L63.1726 48.4536C63.3179 48.2744 63.4492 48.1176 63.6141 47.944H64.1198L64.1226 47.9468ZM61.1441 47.7144C61.3229 47.7144 61.4794 47.8516 61.3955 48.196L60.5601 48.3892C60.7054 48 60.9485 47.7144 61.1413 47.7144M61.6051 49.0612H61.4402C61.2307 49.3104 61.0072 49.5036 60.7864 49.5036C60.5657 49.5036 60.4427 49.3664 60.4427 49.0612C60.4427 48.9352 60.4567 48.8092 60.4819 48.6916L61.8258 48.2492C62.0885 47.6276 61.7727 47.3532 61.4039 47.3532C60.7696 47.3532 60.046 48.4172 60.046 49.3524C60.046 49.7696 60.2444 49.9992 60.5545 49.9992C60.9177 49.9992 61.2977 49.6436 61.6079 49.0612M58.4365 47.7284H58.8836L58.1739 49.6688C58.1096 49.834 58.199 49.9992 58.3667 49.9992C58.769 49.9992 59.4201 49.6016 59.6464 49.0556H59.5207C59.3418 49.246 58.9954 49.498 58.702 49.5512L59.353 47.7284H60.018L60.1019 47.4512H59.4564L59.7051 46.7512H59.448L58.987 47.4512L58.4393 47.5296V47.7284H58.4365ZM55.9861 49.2404C55.9861 48.6412 56.6511 47.8292 57.0255 47.8292C57.1093 47.8292 57.1848 47.8376 57.2546 47.8572L56.8662 48.8932C56.6427 49.1648 56.299 49.4952 56.1398 49.4952C56.0476 49.4952 55.9889 49.4168 55.9889 49.2376M58.0286 47.2412L57.8246 47.2272L57.5955 47.4512H57.548C56.4415 47.4512 55.4859 48.6972 55.4859 49.6016C55.4859 49.8536 55.6424 49.9992 55.8827 49.9992C56.1677 49.9992 56.4499 49.5904 56.7657 49.1536L56.7517 49.3104C56.7126 49.7584 56.8495 50.002 57.0814 50.002C57.3524 50.002 57.6011 49.5792 57.7911 49.162H57.6654C57.534 49.3524 57.4139 49.4644 57.3161 49.4644C57.2155 49.4644 57.1401 49.2796 57.3161 48.8848L58.0286 47.2468V47.2412ZM55.6704 47.9468C55.7626 47.6304 55.7151 47.3532 55.472 47.3532C55.187 47.3532 55.1115 47.5716 54.8209 48.1988V47.8376C54.8209 47.58 54.7371 47.3504 54.5052 47.3504C54.2342 47.3504 53.9855 47.7732 53.7955 48.1904H53.9212C54.0525 48 54.1727 47.888 54.2705 47.888C54.3878 47.888 54.4493 48.0672 54.2705 48.4676L53.7452 49.6352C53.6474 49.8536 53.7508 49.9964 53.9631 49.9964C54.0945 49.9964 54.1531 49.9628 54.2062 49.82L54.7203 48.4536C54.8656 48.2744 54.997 48.1176 55.1618 47.944H55.6676L55.6704 47.9468ZM51.9542 49.9012L52.0017 49.75C51.3562 49.6296 51.2752 49.6296 51.5322 48.924L51.7949 48.1988H52.5074C52.8287 48.1988 52.8315 48.3304 52.784 48.6804H52.9684L53.3959 47.51H53.2115C53.0523 47.7872 52.9265 47.9916 52.5772 47.9916H51.8731L52.2475 46.9668C52.3649 46.642 52.432 46.572 52.8678 46.572H53.178C53.6278 46.572 53.6837 46.6924 53.6837 47.1516H53.8626L54.0134 46.3536H51.3339L51.2864 46.5048C51.8061 46.6112 51.8536 46.6616 51.6105 47.3308L51.0293 48.9268C50.7862 49.5932 50.6856 49.6464 50.0877 49.7528L50.043 49.904H51.9542V49.9012Z" fill="black"/>
<path d="M65.0838 41.6352C65.2626 41.6352 65.4191 41.7724 65.3353 42.1168L64.4998 42.31C64.6451 41.9208 64.8882 41.6352 65.081 41.6352M65.5448 42.982H65.38C65.1704 43.2312 64.9469 43.4244 64.7261 43.4244C64.5054 43.4244 64.3825 43.2872 64.3825 42.982C64.3825 42.856 64.3964 42.73 64.4216 42.6124L65.7656 42.17C66.0282 41.5484 65.7125 41.274 65.3436 41.274C64.7094 41.274 63.9857 42.338 63.9857 43.2732C63.9857 43.6904 64.1841 43.92 64.4942 43.92C64.8575 43.92 65.2375 43.5644 65.5476 42.982M65.2794 41.0276L66.2266 40.1428V40.042H65.7181L65.1369 41.0304H65.2822L65.2794 41.0276ZM62.3763 41.6492H62.8233L62.1136 43.5896C62.0494 43.7548 62.1388 43.92 62.3064 43.92C62.7088 43.92 63.3598 43.5224 63.5861 42.9764H63.4604C63.2816 43.1668 62.9351 43.4188 62.6417 43.472L63.2928 41.6492H63.9578L64.0416 41.372H63.3961L63.6448 40.672H63.3878L62.9267 41.372L62.3791 41.4504V41.6492H62.3763ZM61.7755 41.5568C61.8286 41.3776 61.7085 41.274 61.6163 41.274C61.2279 41.274 60.7669 41.624 60.5824 42.114H60.7082C60.8339 41.9348 61.0491 41.736 61.2474 41.6996L60.5042 43.6344C60.4371 43.8136 60.5713 43.9172 60.6635 43.9172C61.0323 43.9172 61.4654 43.5616 61.6498 43.0772H61.5241C61.3983 43.2564 61.1832 43.4552 60.9848 43.4916L61.7755 41.5568ZM61.9125 40.5852C62.0885 40.5852 62.2338 40.4452 62.2338 40.2632C62.2338 40.0812 62.0885 39.9412 61.9125 39.9412C61.7364 39.9412 61.5911 40.0868 61.5911 40.2632C61.5911 40.4396 61.7308 40.5852 61.9125 40.5852ZM59.3307 43.4916L60.683 39.9384L60.6383 39.8852L59.7889 39.9832V40.084L59.9538 40.21C60.1046 40.3276 60.0544 40.4396 59.9202 40.798L58.8613 43.5896C58.783 43.7408 58.8864 43.92 59.0541 43.92C59.4424 43.92 59.856 43.57 60.0404 43.08H59.9146C59.7889 43.2592 59.5263 43.458 59.3279 43.4944M56.7573 43.1612C56.7573 42.562 57.4223 41.75 57.7967 41.75C57.8805 41.75 57.956 41.7584 58.0258 41.778L57.6374 42.814C57.4139 43.0856 57.0702 43.416 56.9109 43.416C56.8187 43.416 56.7601 43.3376 56.7601 43.1584M58.7998 41.162L58.5958 41.148L58.3667 41.372H58.3192C57.2127 41.372 56.2571 42.618 56.2571 43.5224C56.2571 43.7744 56.4136 43.92 56.6539 43.92C56.9389 43.92 57.2211 43.5112 57.5368 43.0744L57.5229 43.2312C57.4837 43.6792 57.6207 43.9228 57.8526 43.9228C58.1236 43.9228 58.3723 43.5 58.5623 43.0828H58.4365C58.3052 43.2732 58.1851 43.3852 58.0873 43.3852C57.9867 43.3852 57.9113 43.2004 58.0873 42.8056L58.7998 41.1676V41.162ZM53.8626 44.3904C53.8626 44.1328 54.1112 43.9732 54.4633 43.8304C54.5806 43.8892 54.7539 43.9508 54.9886 44.0292C55.3574 44.1496 55.4971 44.2 55.4971 44.312C55.4971 44.55 55.0948 44.7292 54.5471 44.7292C54.0861 44.7292 53.8626 44.6312 53.8626 44.3876M54.8656 42.8224C54.7064 42.8224 54.6421 42.6852 54.6421 42.5312C54.6421 42.0972 54.874 41.4616 55.2401 41.4616C55.3993 41.4616 55.4636 41.5988 55.4636 41.7528C55.4636 42.1868 55.2317 42.8224 54.8656 42.8224ZM55.919 44.1524C55.919 43.8416 55.6424 43.7296 55.1926 43.5924C54.8042 43.4748 54.6309 43.4412 54.6309 43.3152C54.6309 43.2144 54.7148 43.0912 54.8796 43.0044C55.5139 42.9708 55.9274 42.3968 55.9274 41.9152C55.9274 41.8144 55.9079 41.7248 55.8743 41.6464H56.4136L56.4974 41.3692H55.6424C55.5418 41.3048 55.4189 41.2712 55.2987 41.2712C54.6253 41.2712 54.1867 41.8648 54.1867 42.3464C54.1867 42.7104 54.4186 42.94 54.7008 42.9932C54.3851 43.1332 54.2118 43.2984 54.2118 43.4944C54.2118 43.6064 54.2509 43.6848 54.3431 43.7576C53.6167 43.9704 53.3289 44.214 53.3289 44.5612C53.3289 44.9084 53.7703 45.0372 54.2956 45.0372C55.1842 45.0372 55.9246 44.5556 55.9246 44.1524M52.527 42.072C52.8483 42.072 52.8511 42.2036 52.8036 42.5536H52.988L53.4155 41.3832H53.2311C53.0718 41.6604 52.9461 41.8648 52.5968 41.8648H51.8927L52.2475 40.8876C52.3649 40.5628 52.432 40.4984 52.8678 40.4984H53.178C53.6278 40.4984 53.6837 40.6188 53.6837 41.0724H53.8626L54.0134 40.2744H51.3339L51.2864 40.4256C51.8061 40.532 51.8536 40.5824 51.6105 41.2516L51.0293 42.8476C50.7862 43.514 50.6856 43.5672 50.0877 43.6736L50.043 43.8248H53.0215L53.5552 42.9792H53.3512C53.0103 43.3012 52.5856 43.6064 51.9877 43.6064C51.1969 43.6064 51.2696 43.5728 51.5322 42.8476L51.8144 42.0748H52.527V42.072ZM52.9153 40.0364L53.8626 39.384V39.2832H53.2898L52.7645 40.0364H52.9153Z" fill="black"/>
<path d="M64.7681 35.5567C64.9469 35.5567 65.1034 35.6939 65.0195 36.0383L64.1841 36.2315C64.3294 35.8423 64.5725 35.5567 64.7653 35.5567M65.2291 36.9035H65.0642C64.8547 37.1527 64.6311 37.3459 64.4104 37.3459C64.1897 37.3459 64.0667 37.2087 64.0667 36.9035C64.0667 36.7775 64.0807 36.6515 64.1058 36.5339L65.4498 36.0915C65.7125 35.4699 65.3967 35.1955 65.0279 35.1955C64.3936 35.1955 63.67 36.2595 63.67 37.1947C63.67 37.6119 63.8683 37.8415 64.1785 37.8415C64.5417 37.8415 64.9217 37.4859 65.2319 36.9035M64.9636 34.9491L65.9109 34.0642V33.9634H65.4023L64.8211 34.9519H64.9664L64.9636 34.9491ZM62.1835 35.5707H62.5383L61.8286 37.5111C61.7644 37.6763 61.8538 37.8415 62.0214 37.8415C62.4238 37.8415 63.0748 37.4439 63.3011 36.8979H63.1754C62.9966 37.0883 62.6501 37.3403 62.3567 37.3935L63.0078 35.5707H63.6728L63.7566 35.2935H63.1111L63.3598 34.5934H63.1028L62.6417 35.2935L62.1863 35.3719V35.5707H62.1835ZM61.8342 35.7919C61.9264 35.4755 61.8789 35.1983 61.6358 35.1983C61.3508 35.1983 61.2754 35.4167 60.9848 36.0439V35.6827C60.9848 35.4251 60.901 35.1955 60.6691 35.1955C60.398 35.1955 60.1494 35.6183 59.9593 36.0355H60.0851C60.2164 35.8451 60.3366 35.7331 60.4344 35.7331C60.5517 35.7331 60.6132 35.9123 60.4344 36.3127L59.9091 37.4803C59.8113 37.6987 59.9146 37.8415 60.127 37.8415C60.2583 37.8415 60.317 37.8079 60.3701 37.6651L60.8842 36.2987C61.0295 36.1195 61.1608 35.9627 61.3257 35.7891H61.8314L61.8342 35.7919ZM58.8557 35.5567C59.0345 35.5567 59.191 35.6939 59.1071 36.0383L58.2717 36.2315C58.417 35.8423 58.6601 35.5567 58.8529 35.5567M59.3167 36.9035H59.1518C58.9423 37.1527 58.7188 37.3459 58.498 37.3459C58.2773 37.3459 58.1543 37.2087 58.1543 36.9035C58.1543 36.7775 58.1683 36.6515 58.1935 36.5339L59.5374 36.0915C59.8001 35.4699 59.4844 35.1955 59.1155 35.1955C58.4813 35.1955 57.7576 36.2595 57.7576 37.1947C57.7576 37.6119 57.956 37.8415 58.2661 37.8415C58.6293 37.8415 59.0093 37.4859 59.3195 36.9035M56.0196 37.4495C55.8883 37.4495 55.6983 37.3291 55.6983 37.2199C55.6983 37.1863 55.757 37.0351 55.8296 36.8447L56.0476 36.2651C56.2795 35.9879 56.6343 35.6911 56.8327 35.6911C56.9529 35.6911 57.0451 35.7695 57.0451 35.9487C57.0451 36.4779 56.5505 37.4467 56.0168 37.4467M57.548 35.7359C57.548 35.3411 57.4027 35.1955 57.1317 35.1955C56.7908 35.1955 56.4723 35.5567 56.1509 35.9935L56.9612 33.8598L56.9165 33.8066L56.0671 33.9046V34.0054L56.232 34.1314C56.3829 34.249 56.3326 34.3694 56.1984 34.7194L55.3239 36.9763C55.2596 37.1415 55.1842 37.3375 55.1842 37.3907C55.1842 37.6231 55.4999 37.8415 55.7849 37.8415C56.4443 37.8415 57.5452 36.6515 57.5452 35.7359M54.9104 35.4783C54.9634 35.2991 54.8433 35.1955 54.7511 35.1955C54.3627 35.1955 53.9017 35.5455 53.7173 36.0355H53.843C53.9687 35.8563 54.1839 35.6575 54.3823 35.6211L53.639 37.5559C53.572 37.7351 53.7061 37.8387 53.7983 37.8387C54.1671 37.8387 54.6002 37.4831 54.7846 36.9987H54.6589C54.5331 37.1779 54.318 37.3767 54.1196 37.4131L54.9104 35.4783ZM55.0445 34.5066C55.2205 34.5066 55.3658 34.3666 55.3658 34.1846C55.3658 34.0026 55.2205 33.8626 55.0445 33.8626C54.8684 33.8626 54.7231 34.0082 54.7231 34.1846C54.7231 34.361 54.8628 34.5066 55.0445 34.5066ZM53.0914 34.1958H51.3255L51.278 34.347C51.7977 34.4534 51.8452 34.5038 51.6021 35.1731L51.0293 36.7691C50.7862 37.4355 50.6856 37.4887 50.0877 37.5951L50.043 37.7463H52.7309L53.3121 36.7047H53.1081C52.7784 37.0687 52.39 37.5251 51.7921 37.5251C51.3422 37.5251 51.2864 37.4467 51.5294 36.7663L52.1022 35.1703C52.3397 34.5038 52.4459 34.4506 53.0439 34.3442L53.0886 34.193L53.0914 34.1958Z" fill="black"/>
<path d="M60.015 7.76641C60.11 7.67121 60.205 7.57041 60.3 7.46961C60.476 7.27081 60.6493 7.07761 60.8532 6.90401C60.9147 6.84801 60.9762 6.80041 61.0349 6.75841C61.0516 6.74161 61.0516 6.70801 61.0684 6.69121C60.9846 6.72481 60.9343 6.79201 60.8532 6.82561C60.8365 6.82561 60.8197 6.80881 60.8365 6.79201C60.8951 6.74721 60.9538 6.70241 61.0153 6.65761C61.0125 6.65761 61.0069 6.65761 61.0041 6.65761C60.9874 6.65761 60.9874 6.64081 60.9874 6.62401C60.7722 6.5904 60.6046 6.74161 60.4565 6.87321C60.4229 6.89001 60.3894 6.85641 60.3726 6.85641C60.124 6.94041 59.9396 7.15601 59.6909 7.25681V7.22321C59.5903 7.25681 59.4953 7.31561 59.3919 7.34081C59.2438 7.37441 59.1097 7.35761 58.9756 7.35761C58.7744 7.37721 58.5732 7.42201 58.372 7.46401C58.3665 7.46401 58.3609 7.46681 58.3553 7.46961C58.2463 7.50041 58.1457 7.53961 58.0451 7.59561C58.0423 7.59561 58.0367 7.60121 58.034 7.60121C58.0256 7.61241 58.0172 7.62081 58.0088 7.62921C57.9725 7.66841 57.9417 7.70481 57.8942 7.73001C57.7909 7.78321 57.7098 7.87281 57.6176 7.94562C57.612 7.95122 57.6009 7.95402 57.5897 7.95402C57.5003 8.04082 57.4137 8.12762 57.3214 8.21162C57.3159 8.21722 57.2907 8.22002 57.2712 8.21722C57.2739 8.21162 57.2767 8.20602 57.2795 8.20042C57.2935 8.17802 57.3075 8.15282 57.3214 8.13042C57.3382 8.10522 57.355 8.08002 57.3717 8.05202C57.3941 8.01842 57.4164 7.98482 57.4416 7.95122C57.4472 7.94282 57.4472 7.93442 57.4416 7.92882C57.436 7.92322 57.4276 7.92042 57.4192 7.92042C57.5031 7.83922 57.6009 7.77201 57.6987 7.71321C57.6987 7.71321 57.6987 7.71321 57.6987 7.71041C57.6875 7.71321 57.6707 7.70481 57.6791 7.69361C57.6903 7.67961 57.6987 7.66281 57.707 7.64881C57.707 7.64321 57.7098 7.63761 57.7126 7.63481C57.7098 7.62921 57.7042 7.62641 57.7014 7.62081C57.6735 7.63761 57.6456 7.65441 57.6232 7.67681C57.5841 7.71321 57.5534 7.78601 57.4919 7.78601C57.4891 7.78601 57.4751 7.78601 57.4667 7.78321C57.4584 7.78321 57.4528 7.78041 57.45 7.77761C57.45 7.77761 57.45 7.77761 57.45 7.77481C57.45 7.77481 57.45 7.77201 57.45 7.76921C57.45 7.76921 57.45 7.76641 57.45 7.76361C57.45 7.75801 57.4556 7.75521 57.4584 7.74961C57.4584 7.74401 57.4639 7.74121 57.4667 7.73561C57.4667 7.73281 57.4723 7.72721 57.4723 7.72441C57.4751 7.71601 57.4807 7.71041 57.4835 7.70201C57.4863 7.69641 57.4891 7.69081 57.4919 7.68801C57.5003 7.67681 57.5059 7.66281 57.5142 7.65161C57.517 7.64601 57.5198 7.64041 57.5254 7.63481C57.531 7.62361 57.5366 7.61521 57.5422 7.60401C57.5506 7.59001 57.5422 7.57881 57.531 7.57321C57.5617 7.53401 57.5981 7.50041 57.6456 7.47521H57.64C57.7042 7.44441 57.7685 7.40521 57.83 7.36881C57.8384 7.36041 57.8495 7.35201 57.8579 7.34361C57.7629 7.37441 57.6791 7.41921 57.5925 7.47521C57.5925 7.47521 57.5701 7.48361 57.5645 7.48921C57.5645 7.48921 57.545 7.49761 57.5226 7.47521C57.5226 7.47241 57.5198 7.46961 57.5198 7.46401C57.5366 7.43041 57.5869 7.41361 57.6204 7.38001C57.6372 7.38001 57.6539 7.38001 57.6539 7.39681C58.1848 6.97961 58.9169 7.08041 59.5316 6.86481C59.5819 6.83121 59.6322 6.79761 59.6797 6.76401C59.7635 6.73041 59.8278 6.64641 59.9284 6.5988C60.0625 6.498 60.1603 6.3832 60.2106 6.2152C60.2106 6.1984 60.1938 6.1816 60.1938 6.1816C59.9787 6.414 59.73 6.59881 59.4646 6.73041C59.1153 6.91241 58.7353 6.87881 58.3692 6.92921C58.386 6.89561 58.4195 6.89561 58.4531 6.89561C58.4531 6.84521 58.4866 6.82841 58.5201 6.79481H58.5704C58.5872 6.79481 58.5872 6.76121 58.604 6.76121C58.6375 6.76121 58.6878 6.74441 58.671 6.74441C58.6207 6.67721 58.5229 6.79481 58.4391 6.74441C58.4726 6.71081 58.4559 6.66041 58.4894 6.64361H58.5565C58.5565 6.61 58.59 6.5764 58.59 6.5764C58.8387 6.428 59.0706 6.3104 59.3053 6.176C59.255 6.176 59.2215 6.2264 59.1712 6.1928C59.2047 6.1928 59.1712 6.1424 59.2047 6.1424C59.3863 6.092 59.5372 5.994 59.7188 5.9268C59.6518 5.9268 59.6015 5.9772 59.5372 5.9268C59.5707 5.91 59.5875 5.8764 59.6378 5.8764V5.826C59.6378 5.8092 59.6545 5.8092 59.6713 5.8092C59.6545 5.8092 59.6378 5.7924 59.6378 5.7924C59.6546 5.7588 59.7048 5.7756 59.7384 5.742C59.7216 5.742 59.6881 5.742 59.6881 5.7252C59.7384 5.658 59.8222 5.6412 59.9032 5.6244C59.8865 5.5908 59.8362 5.6244 59.8362 5.5908C59.8362 5.574 59.8529 5.574 59.8697 5.574H59.8362C59.8026 5.5572 59.8194 5.5236 59.8194 5.5068C59.92 5.3892 59.92 5.24079 59.9675 5.10639C59.9507 5.10639 59.934 5.10639 59.934 5.08959C59.7691 5.27159 59.5009 5.3388 59.2522 5.406H59.1684C59.0845 5.4396 58.97 5.4396 58.8862 5.3892C58.8191 5.3556 58.7856 5.30519 58.7213 5.25479C58.5872 5.17079 58.4559 5.10639 58.305 5.05599C57.8887 4.92159 57.4584 4.85719 57.0253 4.87399C57.2069 4.77319 57.4081 4.76479 57.6064 4.70879C57.8887 4.62479 58.1541 4.52679 58.4531 4.54359C58.4028 4.52679 58.3357 4.54359 58.2882 4.54359C58.0563 4.52679 57.8244 4.59399 57.5729 4.64439C57.4081 4.67799 57.2572 4.74519 57.0923 4.77879C56.9917 4.81239 56.9442 4.91319 56.8269 4.89639V4.84599C56.9917 4.64719 57.1929 4.44559 57.4584 4.42879C57.7573 4.37839 58.0395 4.42879 58.3385 4.46239C58.5537 4.47919 58.7548 4.52959 58.97 4.57999C59.0538 4.57999 59.0706 4.71439 59.1348 4.72839C59.2354 4.76199 59.3332 4.72839 59.4338 4.79559C59.4338 4.76199 59.4171 4.72839 59.4338 4.69479C59.5009 4.62759 59.5819 4.71159 59.649 4.67799C59.7831 4.59399 59.5316 4.44559 59.4673 4.32799C59.4673 4.31119 59.4841 4.29439 59.4841 4.29439C59.6182 4.41199 59.716 4.54359 59.8837 4.62759C59.9675 4.66119 60.1659 4.71159 60.1323 4.61079C60.0485 4.42879 59.8837 4.27759 59.7495 4.11239V4.04519C59.716 4.04519 59.716 4.02838 59.6993 4.01158V3.94438C59.6322 3.91078 59.649 3.84358 59.6154 3.79598C59.5651 3.71198 59.5987 3.59718 59.5651 3.49638C59.5316 3.39558 59.5148 3.31438 59.4981 3.21358C59.4478 2.93078 59.3807 2.68157 59.35 2.41557C59.3165 2.09917 59.5316 1.84997 59.6825 1.56717C59.7998 1.36836 59.9312 1.16676 60.1463 1.03516C60.1966 0.83636 60.3279 0.668358 60.4621 0.503157C60.5934 0.340756 60.8141 0.242755 60.9734 0.169954C61.2053 0.0663536 61.4149 0.00195312 61.4149 0.00195312H50.0176V8.80802H58.087C58.4028 8.58122 58.7185 8.47202 59.16 8.25362C59.3695 8.15002 59.8445 7.93162 60.0066 7.76921L60.015 7.76641ZM57.4612 6.5736C57.4276 6.5736 57.3606 6.5904 57.3773 6.5568C57.3941 6.4728 57.5114 6.4728 57.5757 6.4392C57.6092 6.4224 57.6595 6.3888 57.6931 6.4056C57.7266 6.456 57.7769 6.4392 57.8104 6.4728C57.7098 6.57361 57.5785 6.5232 57.4612 6.5736ZM54.9213 6.2096C54.9213 6.2096 54.9045 6.1928 54.9045 6.176C55.1197 5.8932 55.2873 5.6272 55.4354 5.3276C55.6506 5.20999 55.8294 5.04199 55.9998 4.86279C56.282 4.56319 56.581 4.29719 56.9303 4.13199C57.0644 4.08159 57.2292 4.09839 57.3634 4.14879C57.3131 4.21599 57.2292 4.19919 57.165 4.24959C57.1482 4.24959 57.1314 4.24959 57.1147 4.23279C57.1314 4.21599 57.1314 4.19919 57.1314 4.18239C56.9666 4.36439 56.7319 4.44839 56.6006 4.66399C56.5 4.82919 56.4357 5.04759 56.2178 5.09799C56.1507 5.11479 56.2345 5.04759 56.201 5.06439C55.6869 5.3808 55.3208 5.7644 54.9213 6.2124V6.2096ZM56.2988 5.10919C56.282 5.14279 56.2625 5.14559 56.2485 5.17639C56.2317 5.20999 56.215 5.22679 56.1814 5.24359C56.1647 5.24359 56.1479 5.24359 56.1479 5.22679C56.1647 5.15959 56.215 5.09239 56.282 5.07839C56.2988 5.07839 56.2988 5.09519 56.2988 5.11199V5.10919ZM57.07 7.60401C57.0616 7.62361 57.0448 7.63761 57.0281 7.65161C57.0476 7.65721 57.0644 7.66561 57.0504 7.67681C57.0113 7.71321 56.975 7.74681 56.9247 7.76361C56.9219 7.76361 56.9107 7.76361 56.8995 7.76641C56.88 7.78601 56.8576 7.80561 56.8381 7.82521C56.8185 7.84202 56.7263 7.83081 56.7542 7.80561C56.7961 7.76921 56.8353 7.72721 56.8772 7.69081C56.8995 7.66841 56.9247 7.64881 56.947 7.62361C56.9582 7.60961 56.9694 7.59841 56.9834 7.58721C56.9973 7.57881 57.0839 7.57041 57.07 7.60121V7.60401ZM56.771 7.46681C56.771 7.46681 56.771 7.46681 56.7682 7.46961C56.7067 7.51441 56.6453 7.55921 56.5782 7.59561C56.5084 7.63761 56.4329 7.66841 56.3603 7.70201C56.3603 7.70201 56.3603 7.70201 56.3603 7.69921C56.3547 7.69081 56.3435 7.68801 56.3323 7.69361C56.2709 7.72721 56.215 7.77201 56.1647 7.82241C56.1563 7.83081 56.1479 7.83641 56.1423 7.84481C56.1339 7.85322 56.1256 7.86162 56.12 7.86722C56.12 7.86722 56.12 7.86722 56.1172 7.87002C56.106 7.88122 56.0948 7.89242 56.0809 7.90922C56.0725 7.92042 56.0697 7.92602 56.0585 7.93162C56.0473 7.93722 56.0194 7.93722 56.0222 7.92042C56.0222 7.92042 56.0222 7.92042 56.0222 7.91762C56.011 7.92322 56.0026 7.92882 55.9914 7.93162C55.9831 7.93722 55.9747 7.94002 55.9663 7.94562C55.9635 7.94562 55.9579 7.94562 55.9551 7.94562C55.9495 7.94562 55.9467 7.94562 55.9439 7.94842C55.9244 7.96522 55.9048 7.98202 55.8853 7.99882C55.8517 8.02962 55.8182 8.06602 55.7903 8.10242C55.7903 8.10242 55.7903 8.10522 55.7875 8.10802C55.7875 8.10802 55.7847 8.11362 55.7819 8.11362C55.7819 8.11362 55.7791 8.11922 55.7763 8.11922C55.7735 8.12482 55.7679 8.13042 55.7651 8.13602C55.7623 8.13882 55.7567 8.14162 55.7511 8.14162C55.7511 8.13882 55.7456 8.13602 55.7456 8.13042C55.7456 8.13042 55.7428 8.12482 55.74 8.12202C55.7344 8.11362 55.7316 8.10522 55.726 8.09402C55.726 8.09402 55.726 8.08842 55.7232 8.08562C55.74 8.06602 55.7595 8.04642 55.7763 8.02682C55.7763 8.02682 55.7763 8.02682 55.7791 8.02402C55.7847 8.01562 55.7903 8.01002 55.7959 8.00162C55.8042 7.99042 55.8154 7.97922 55.8238 7.96522C55.8266 7.95962 55.8294 7.95682 55.835 7.95122C55.8545 7.92602 55.8713 7.90361 55.8881 7.88122C55.8881 7.87842 55.8936 7.87562 55.8964 7.87002C55.9048 7.85882 55.9132 7.84761 55.9188 7.83361C55.9244 7.82241 55.93 7.81121 55.9384 7.80001C55.9384 7.80001 55.9384 7.80001 55.9384 7.79721C55.9384 7.79721 55.9384 7.79441 55.9384 7.79161C55.9439 7.78041 55.9495 7.76641 55.9551 7.75241C55.9551 7.75241 55.9551 7.74961 55.9551 7.74681C55.9551 7.74401 55.9551 7.73841 55.9579 7.73561C55.9579 7.73001 55.9607 7.72441 55.9635 7.71601C55.9635 7.71601 55.9635 7.71601 55.9635 7.71321C55.9635 7.70481 55.9691 7.69641 55.9691 7.68801C55.9691 7.68241 55.9691 7.67961 55.9691 7.67681C55.9859 7.64601 56.0082 7.61521 56.0361 7.58721C56.0361 7.58721 56.0306 7.58721 56.0278 7.59281C56.0054 7.60681 55.9886 7.62921 55.9663 7.64601C55.9495 7.66001 55.916 7.63761 55.9356 7.62081C55.9495 7.60961 55.9607 7.59841 55.9747 7.58721C56.0026 7.55921 56.0278 7.52561 56.0585 7.50321C56.0781 7.48921 56.0948 7.47801 56.1088 7.46401C56.1088 7.46401 56.1144 7.45841 56.1172 7.45841C56.1284 7.44441 56.1423 7.43041 56.1535 7.41641C56.3128 7.26241 56.581 7.27081 56.7906 7.17281C56.8744 7.13921 56.9722 7.18961 57.056 7.17281C57.1063 7.17281 57.1566 7.17281 57.2041 7.20641C57.056 7.28761 56.9163 7.38001 56.7822 7.46401L56.771 7.46681ZM57.1119 6.3076C57.0951 6.2908 57.1622 6.3076 57.1789 6.274H57.0448C57.0281 6.274 57.0281 6.2572 57.0281 6.2404C56.9442 6.2572 56.8464 6.2908 56.7626 6.3076C56.6453 6.3412 56.5475 6.4252 56.4134 6.456C56.2317 6.5232 56.0809 6.67161 55.8825 6.73881C55.8657 6.73881 55.8657 6.72201 55.8657 6.70521C55.8825 6.65481 55.9495 6.63801 55.9831 6.5876C55.9831 6.57081 55.9831 6.554 55.9663 6.554C56.1004 6.372 56.282 6.2712 56.4469 6.12V6.0696C56.4972 6.0024 56.581 5.9688 56.6117 5.8876C56.6285 5.8372 56.6956 5.77 56.7766 5.7392C56.7598 5.7224 56.7263 5.7224 56.7263 5.6888C56.6592 5.6888 56.5922 5.7224 56.5279 5.672C56.5586 5.6412 56.595 5.6244 56.6313 5.6132C56.6173 5.6104 56.6034 5.602 56.595 5.588C56.5782 5.5544 56.6257 5.518 56.6788 5.504C56.7459 5.4872 56.8269 5.4872 56.8772 5.4368C56.7598 5.42 56.6285 5.4704 56.5111 5.4032C56.595 5.18759 56.7263 5.00279 56.9275 4.90479C56.9442 4.90479 56.9778 4.90479 56.9778 4.92159C56.9778 5.00559 56.9275 5.06999 56.8437 5.08679C56.9778 5.12039 57.1091 5.12039 57.2432 5.18759C57.2264 5.22119 57.1929 5.20439 57.1762 5.20439C57.26 5.25479 57.3578 5.22119 57.4416 5.28839C57.3913 5.3388 57.341 5.28839 57.2935 5.28839C57.8076 5.4368 58.3553 5.5544 58.7884 5.8876C58.4223 6.0696 58.0423 6.1536 57.6428 6.2376C57.5925 6.2376 57.559 6.2376 57.5087 6.2208C57.5087 6.2376 57.5087 6.2712 57.4919 6.2712C57.4248 6.2712 57.3745 6.2712 57.327 6.3048C57.26 6.3384 57.1622 6.3552 57.1119 6.3048V6.3076Z" fill="#293273"/>
<path d="M74.1895 0H64.7369C64.7369 0 64.7537 0.00280002 64.8263 0.0420003C64.9018 0.0840007 65.0024 0.137201 65.0638 0.168001C65.1868 0.232402 65.3041 0.310802 65.3796 0.434003C65.4131 0.484404 65.4634 0.582405 65.4299 0.649605C65.3963 0.733606 65.3796 0.865207 65.2958 0.898807C65.1952 0.949208 65.0638 0.949208 64.9465 0.932407C64.8794 0.932407 64.8124 0.915607 64.7481 0.898807C64.9968 0.999608 65.2287 1.11441 65.3963 1.34681C65.4131 1.38041 65.4802 1.39721 65.5444 1.39721C65.5612 1.39721 65.5612 1.43081 65.5612 1.44761C65.5277 1.48121 65.4941 1.49801 65.5109 1.54841H65.5612C65.645 1.51481 65.6283 1.34961 65.7428 1.40001C65.8266 1.45041 65.8602 1.56521 65.8099 1.64921C65.7428 1.71641 65.6758 1.76681 65.6115 1.81441C65.5947 1.84801 65.5947 1.89842 65.6115 1.93202C65.6618 1.99922 65.6785 2.06642 65.6953 2.13082C65.7456 2.24842 65.7624 2.38002 65.8127 2.49762C65.8797 2.74682 65.9468 2.99602 65.93 3.24523C65.93 3.37963 65.863 3.49443 65.9133 3.62883C65.9468 3.76323 66.0306 3.86123 66.0949 3.97883C66.1619 4.07963 66.229 4.14403 66.2765 4.24483C66.3771 4.41004 66.5587 4.57804 66.4749 4.77684C66.4246 4.89444 66.243 4.87764 66.1256 4.94204C66.025 5.02604 66.1088 5.15764 66.1591 5.24164C66.243 5.39004 66.0585 5.49084 65.944 5.54124C65.9775 5.59164 66.0446 5.57484 66.0613 5.60845C66.0781 5.69245 66.1619 5.74285 66.1116 5.82405C66.0446 5.92485 65.8462 5.97245 65.9468 6.12365C66.0138 6.24125 65.9691 6.37005 65.93 6.49045C65.8797 6.63885 65.7484 6.70605 65.631 6.73965C65.5305 6.77325 65.4159 6.77325 65.3153 6.75645C65.2818 6.73965 65.2483 6.72285 65.2147 6.72285C64.9325 6.68925 64.6503 6.60525 64.3681 6.60525C64.2843 6.62205 64.2032 6.63885 64.1362 6.67245C64.0607 6.72845 63.9937 6.78725 63.935 6.85165C63.9238 6.86565 63.9099 6.87965 63.8987 6.89086C63.8903 6.89926 63.8847 6.90766 63.8763 6.91606C63.8707 6.92166 63.8679 6.92726 63.8624 6.93286C63.8149 6.99446 63.7702 7.05886 63.731 7.12326C63.731 7.12886 63.7254 7.13166 63.7227 7.13726C63.7171 7.14566 63.7143 7.15406 63.7087 7.15966C63.6528 7.26046 63.6137 7.36406 63.5829 7.46486C63.4712 7.84566 63.5187 8.17327 63.5997 8.25167C63.6221 8.27407 64.1474 8.43647 64.5134 8.59887C64.6866 8.67447 64.8068 8.73327 64.9046 8.79767H74.1867V0H74.1895Z" fill="#E10814"/>
<path d="M65.2989 3.21161C65.366 3.22841 65.4638 3.22841 65.4638 3.26201C65.4302 3.39641 65.2318 3.42721 65.1313 3.56161H65.081C65.0307 3.59521 65.0474 3.67921 64.9971 3.67921C64.9468 3.66241 64.8965 3.67921 64.849 3.69601C64.9161 3.76321 64.9971 3.81361 65.0977 3.79681C65.1145 3.79681 65.148 3.83041 65.148 3.86401C65.148 3.86401 65.1648 3.86401 65.1815 3.84721C65.1983 3.84721 65.2151 3.84721 65.2151 3.86401V3.93121C65.1648 3.99841 65.081 3.96481 65.0167 3.98161C65.1508 4.01521 65.2821 4.01521 65.3995 3.98161C65.5001 3.94801 65.3995 3.78281 65.4666 3.69881C65.433 3.69881 65.4665 3.64841 65.433 3.64841C65.4665 3.61481 65.5001 3.56441 65.5336 3.54761C65.5671 3.54761 65.6174 3.53081 65.6342 3.49721C65.6342 3.46361 65.5671 3.44681 65.5839 3.41321C65.6845 3.34601 65.7655 3.24801 65.7348 3.14721C65.718 3.09681 65.5839 3.09681 65.5029 3.0632C65.419 3.0296 65.3213 3.06321 65.2207 3.08001C65.1368 3.08001 65.0558 3.13041 64.972 3.14721C64.8546 3.18081 64.7568 3.24801 64.6562 3.31241C64.7736 3.26201 64.8882 3.24521 65.0223 3.21161C65.1229 3.21161 65.2067 3.18641 65.3045 3.21161H65.2989Z" fill="#9D9D9C"/>
<path d="M0.204107 5.82936C0.564551 6.05056 1.08985 6.23536 1.64309 6.23536C2.46456 6.23536 2.94236 5.80136 2.94236 5.17135C2.94236 4.58895 2.60986 4.25575 1.77162 3.93374C0.757346 3.57534 0.128666 3.04894 0.128666 2.16973C0.128666 1.20092 0.930582 0.478516 2.14044 0.478516C2.77751 0.478516 3.23854 0.626917 3.51516 0.783718L3.29442 1.43892C3.09045 1.32692 2.67692 1.14212 2.1153 1.14212C1.26588 1.14212 0.944553 1.65172 0.944553 2.07453C0.944553 2.65693 1.32176 2.94254 2.17956 3.27574C3.23016 3.68174 3.76663 4.19134 3.76663 5.10695C3.76663 6.06736 3.05692 6.89897 1.59 6.89897C0.989259 6.89897 0.335432 6.72257 0.00292969 6.50136L0.206902 5.82656L0.204107 5.82936Z" fill="black"/>
<path d="M8.92756 4.53599C8.92756 6.19081 7.78476 6.91041 6.70623 6.91041C5.49916 6.91041 4.56592 6.0228 4.56592 4.60879C4.56592 3.11078 5.54387 2.23438 6.77887 2.23438C8.01388 2.23438 8.92756 3.16678 8.92756 4.53599ZM5.3846 4.58079C5.3846 5.5608 5.94622 6.30001 6.73975 6.30001C7.53329 6.30001 8.09491 5.5692 8.09491 4.56399C8.09491 3.80519 7.7177 2.84478 6.75652 2.84478C5.79534 2.84478 5.38181 3.73239 5.38181 4.58359L5.3846 4.58079Z" fill="black"/>
<path d="M13.6831 5.58761C13.6831 6.04961 13.6915 6.45562 13.7195 6.80842H13.0014L12.9539 6.07761H12.9343C12.722 6.43882 12.2525 6.90922 11.459 6.90922C10.7577 6.90922 9.91943 6.52002 9.91943 4.9492V2.33398H10.7297V4.812C10.7297 5.66321 10.9868 6.23442 11.7244 6.23442C12.2693 6.23442 12.6465 5.85641 12.7946 5.49521C12.8421 5.37481 12.8672 5.22641 12.8672 5.07801V2.33398H13.6775V5.58761H13.6831Z" fill="black"/>
<path d="M16.008 1.05273V2.33794H17.1703V2.95675H16.008V5.36757C16.008 5.92197 16.1644 6.23558 16.6171 6.23558C16.8294 6.23558 16.9859 6.20758 17.0865 6.17957L17.1228 6.78998C16.9664 6.85438 16.7177 6.90198 16.4047 6.90198C16.0275 6.90198 15.723 6.78158 15.5274 6.56038C15.2983 6.31958 15.2144 5.92197 15.2144 5.39557V2.95675H14.5215V2.33794H15.2144V1.26554L16.008 1.05273Z" fill="black"/>
<path d="M18.4776 4.72079C18.4971 5.8212 19.1957 6.27201 20.0088 6.27201C20.59 6.27201 20.9392 6.17121 21.2438 6.03961L21.3807 6.62201C21.0957 6.75081 20.6067 6.89921 19.897 6.89921C18.5223 6.89921 17.7036 5.9948 17.7036 4.64519C17.7036 3.29558 18.4971 2.23438 19.7964 2.23438C21.2522 2.23438 21.6405 3.51959 21.6405 4.33999C21.6405 4.50519 21.621 4.63679 21.6126 4.71799H18.4776V4.72079ZM20.8582 4.13839C20.8666 3.62039 20.6458 2.81678 19.7322 2.81678C18.9107 2.81678 18.553 3.57559 18.486 4.13839H20.8554H20.8582Z" fill="black"/>
<path d="M22.6467 3.54674C22.6467 3.08473 22.6383 2.70673 22.6104 2.33713H23.3284L23.3759 3.07633H23.3955C23.6162 2.65073 24.1332 2.23633 24.8708 2.23633C25.4883 2.23633 26.4467 2.60593 26.4467 4.14034V6.81156H25.6364V4.23274C25.6364 3.51314 25.3682 2.91113 24.6026 2.91113C24.0689 2.91113 23.6526 3.28914 23.5157 3.74274C23.4793 3.84354 23.4598 3.98354 23.4598 4.12074V6.80876H22.6495V3.54674H22.6467Z" fill="black"/>
<path d="M31.4986 5.58761C31.4986 6.04961 31.5069 6.45562 31.5349 6.80842H30.8168L30.7693 6.07761H30.7497C30.5374 6.43882 30.068 6.90922 29.2744 6.90922C28.5731 6.90922 27.7349 6.52002 27.7349 4.9492V2.33398H28.5452V4.812C28.5452 5.66321 28.8022 6.23442 29.5399 6.23442C30.0847 6.23442 30.4619 5.85641 30.61 5.49521C30.6575 5.37481 30.6827 5.22641 30.6827 5.07801V2.33398H31.493V5.58761H31.4986Z" fill="black"/>
<path d="M20.1374 13.5967C20.1374 13.0227 20.1178 12.5607 20.1011 12.1379H20.8303L20.8667 12.9051H20.8862C21.2187 12.3591 21.744 12.0371 22.4733 12.0371C23.5518 12.0371 24.3649 12.9527 24.3649 14.3107C24.3649 15.9179 23.387 16.7131 22.3364 16.7131C21.7468 16.7131 21.2299 16.4555 20.9617 16.0103H20.9421V18.4408H20.1402V13.5995L20.1374 13.5967ZM20.9393 14.7895C20.9393 14.9099 20.9589 15.0219 20.9756 15.1227C21.1237 15.6855 21.6127 16.0747 22.1939 16.0747C23.0517 16.0747 23.549 15.3719 23.549 14.3471C23.549 13.4511 23.0796 12.6839 22.2218 12.6839C21.6686 12.6839 21.1517 13.0815 20.9952 13.6919C20.9673 13.7927 20.9393 13.9131 20.9393 14.0251V14.7923V14.7895Z" fill="black"/>
<path d="M27.8549 16.6095L27.7907 16.0467H27.7627C27.514 16.3967 27.0335 16.7131 26.3992 16.7131C25.4967 16.7131 25.0356 16.0747 25.0356 15.4279C25.0356 14.3471 25.994 13.7563 27.718 13.7647V13.6723C27.718 13.3027 27.6174 12.6363 26.7037 12.6363C26.2902 12.6363 25.8543 12.7651 25.5414 12.9695L25.357 12.4347C25.7258 12.1939 26.2595 12.0371 26.8239 12.0371C28.1874 12.0371 28.5199 12.9695 28.5199 13.8683V15.5399C28.5199 15.9291 28.5395 16.3071 28.5926 16.6123H27.8549V16.6095ZM27.7348 14.3275C26.849 14.3079 25.8431 14.4675 25.8431 15.3355C25.8431 15.8619 26.1924 16.1111 26.6087 16.1111C27.1899 16.1111 27.5587 15.7415 27.6873 15.3635C27.7152 15.2795 27.7348 15.1871 27.7348 15.1059V14.3303V14.3275Z" fill="black"/>
<path d="M29.8273 13.5323C29.8273 13.0059 29.819 12.5523 29.791 12.1379H30.5007L30.5287 13.0171H30.565C30.769 12.4151 31.2579 12.0371 31.8 12.0371C31.8922 12.0371 31.9565 12.0455 32.0319 12.0651V12.8323C31.9481 12.8127 31.8671 12.8043 31.7553 12.8043C31.1825 12.8043 30.7773 13.2383 30.6684 13.8487C30.6488 13.9607 30.632 14.0895 30.632 14.2267V16.6123H29.8301V13.5351L29.8273 13.5323Z" fill="black"/>
<path d="M41.2275 0V49.902" stroke="black" stroke-miterlimit="10"/>
</g>
<defs>
<clipPath id="clip0_1192_2424">
<rect width="121" height="50" fill="white"/>
</clipPath>
</defs>
</svg>
